<svg width="36" height="20" viewBox="0 0 36 20" fill="none" xmlns="http://www.w3.org/2000/svg">
<path d="M11.2715 9.525H6.62148V4.95H5.04648V9.525H0.396484V11H5.04648V15.55H6.62148V11H11.2715V9.525ZM20.1514 1.05V16.55C20.1514 17.0667 20.2014 17.4667 20.3014 17.75C20.4014 18.0167 20.5847 18.2083 20.8514 18.325C21.118 18.425 21.4847 18.475 21.9514 18.475V19C21.5847 18.9833 21.0764 18.9667 20.4264 18.95C19.7764 18.9167 19.1014 18.9 18.4014 18.9C17.5847 18.9 16.7764 18.9167 15.9764 18.95C15.1764 18.9667 14.5514 18.9833 14.1014 19V18.475C14.7347 18.475 15.2264 18.4083 15.5764 18.275C15.9264 18.1417 16.1764 17.9083 16.3264 17.575C16.4764 17.225 16.5514 16.7333 16.5514 16.1V5.05C16.5514 4.18333 16.3597 3.64167 15.9764 3.425C15.593 3.20833 14.868 3.1 13.8014 3.1V2.575C15.4347 2.375 16.743 2.14167 17.7264 1.875C18.7097 1.59167 19.518 1.31667 20.1514 1.05ZM33.7926 0.0499996C33.7759 0.266665 33.7592 0.541665 33.7426 0.874999C33.7259 1.19167 33.7176 1.49167 33.7176 1.775C33.7176 2.15833 33.7259 2.54167 33.7426 2.925C33.7759 3.30833 33.8259 3.725 33.8926 4.175H25.5676L25.1926 9.375C25.7592 8.925 26.3842 8.60833 27.0676 8.425C27.7509 8.225 28.4842 8.125 29.2676 8.125C30.4009 8.125 31.4009 8.33333 32.2676 8.75C33.1342 9.16667 33.8176 9.775 34.3176 10.575C34.8342 11.375 35.0926 12.3333 35.0926 13.45C35.0926 14.6833 34.7926 15.7417 34.1926 16.625C33.5926 17.4917 32.7842 18.1667 31.7676 18.65C30.7676 19.1167 29.6342 19.35 28.3676 19.35C27.8009 19.35 27.2092 19.2833 26.5926 19.15C25.9926 19.0167 25.4592 18.7917 24.9926 18.475C24.5592 18.1917 24.2259 17.8667 23.9926 17.5C23.7592 17.1167 23.6426 16.7167 23.6426 16.3C23.6426 15.7667 23.8176 15.3167 24.1676 14.95C24.5176 14.5833 24.9926 14.4 25.5926 14.4C26.1092 14.4 26.5342 14.55 26.8676 14.85C27.2176 15.15 27.3926 15.5917 27.3926 16.175C27.3926 16.6917 27.2426 17.125 26.9426 17.475C26.6592 17.825 26.2759 18.0833 25.7926 18.25C25.9759 18.4333 26.2509 18.5833 26.6176 18.7C27.0009 18.8167 27.4176 18.875 27.8676 18.875C28.5009 18.875 29.0759 18.7333 29.5926 18.45C30.1092 18.1667 30.5259 17.65 30.8426 16.9C31.1592 16.1333 31.3176 15.0417 31.3176 13.625C31.3176 12.0917 31.0259 10.9 30.4426 10.05C29.8759 9.2 29.1092 8.775 28.1426 8.775C27.7926 8.775 27.3426 8.85 26.7926 9C26.2426 9.13333 25.6842 9.45 25.1176 9.95L24.6676 9.85L25.3676 1.2C25.7009 1.26667 26.0759 1.3 26.4926 1.3H31.4426C32.0259 1.3 32.4592 1.20833 32.7426 1.025C33.0259 0.841666 33.2092 0.516666 33.2926 0.0499996H33.7926Z" fill="#2671E7"/>
</svg>
