<svg width="164" height="41" viewBox="0 0 164 41" fill="none" xmlns="http://www.w3.org/2000/svg">
<path d="M22.8851 19.8326H13.2131V10.3166H9.93708V19.8326H0.265076V22.9006H9.93708V32.3646H13.2131V22.9006H22.8851V19.8326ZM41.3552 2.20465V34.4446C41.3552 35.5193 41.4592 36.3513 41.6672 36.9406C41.8752 37.4953 42.2566 37.894 42.8112 38.1366C43.3659 38.3446 44.1286 38.4486 45.0992 38.4486V39.5406C44.3366 39.506 43.2792 39.4713 41.9272 39.4366C40.5752 39.3673 39.1712 39.3326 37.7152 39.3326C36.0166 39.3326 34.3352 39.3673 32.6712 39.4366C31.0072 39.4713 29.7072 39.506 28.7712 39.5406V38.4486C30.0886 38.4486 31.1112 38.31 31.8392 38.0326C32.5672 37.7553 33.0872 37.27 33.3992 36.5766C33.7112 35.8486 33.8672 34.826 33.8672 33.5086V10.5246C33.8672 8.72198 33.4686 7.59532 32.6712 7.14465C31.8739 6.69398 30.3659 6.46865 28.1472 6.46865V5.37665C31.5446 4.96065 34.2659 4.47531 36.3112 3.92065C38.3566 3.33131 40.0379 2.75931 41.3552 2.20465ZM69.729 0.124649C69.6943 0.575314 69.6596 1.14731 69.625 1.84065C69.5903 2.49931 69.573 3.12331 69.573 3.71265C69.573 4.50998 69.5903 5.30732 69.625 6.10465C69.6943 6.90198 69.7983 7.76865 69.937 8.70465H52.621L51.841 19.5206C53.0196 18.5846 54.3196 17.926 55.741 17.5446C57.1623 17.1286 58.6876 16.9206 60.317 16.9206C62.6743 16.9206 64.7543 17.354 66.557 18.2206C68.3596 19.0873 69.781 20.3526 70.821 22.0166C71.8956 23.6806 72.433 25.674 72.433 27.9966C72.433 30.562 71.809 32.7633 70.561 34.6006C69.313 36.4033 67.6316 37.8073 65.517 38.8126C63.437 39.7833 61.0796 40.2686 58.445 40.2686C57.2663 40.2686 56.0356 40.13 54.753 39.8526C53.505 39.5753 52.3956 39.1073 51.425 38.4486C50.5236 37.8593 49.8303 37.1833 49.345 36.4206C48.8596 35.6233 48.617 34.7913 48.617 33.9246C48.617 32.8153 48.981 31.8793 49.709 31.1166C50.437 30.354 51.425 29.9726 52.673 29.9726C53.7476 29.9726 54.6316 30.2846 55.325 30.9086C56.053 31.5326 56.417 32.4513 56.417 33.6646C56.417 34.7393 56.105 35.6406 55.481 36.3686C54.8916 37.0966 54.0943 37.634 53.089 37.9806C53.4703 38.362 54.0423 38.674 54.805 38.9166C55.6023 39.1593 56.469 39.2806 57.405 39.2806C58.7223 39.2806 59.9183 38.986 60.993 38.3966C62.0676 37.8073 62.9343 36.7326 63.593 35.1726C64.2516 33.578 64.581 31.3073 64.581 28.3606C64.581 25.1713 63.9743 22.6926 62.761 20.9246C61.5823 19.1566 59.9876 18.2726 57.977 18.2726C57.249 18.2726 56.313 18.4286 55.169 18.7406C54.025 19.018 52.8636 19.6766 51.685 20.7166L50.749 20.5086L52.205 2.51665C52.8983 2.65532 53.6783 2.72465 54.545 2.72465H64.841C66.0543 2.72465 66.9556 2.53398 67.545 2.15265C68.1343 1.77131 68.5156 1.09532 68.689 0.124649H69.729ZM114.342 19.3776V20.1966C113.718 20.1966 113.237 20.2876 112.899 20.4696C112.561 20.6256 112.327 20.9246 112.197 21.3666C112.067 21.7826 112.002 22.3936 112.002 23.1996V35.7186C112.002 36.5246 112.067 37.1486 112.197 37.5906C112.327 38.0066 112.561 38.3056 112.899 38.4876C113.237 38.6436 113.718 38.7216 114.342 38.7216V39.5406C113.796 39.5146 113.068 39.4886 112.158 39.4626C111.248 39.4106 110.299 39.3846 109.311 39.3846C108.245 39.3846 107.205 39.4106 106.191 39.4626C105.177 39.4886 104.384 39.5146 103.812 39.5406V38.7216C104.488 38.7216 105.008 38.6436 105.372 38.4876C105.762 38.3056 106.022 38.0066 106.152 37.5906C106.308 37.1486 106.386 36.5246 106.386 35.7186V21.6396L98.9371 39.7356H98.3131L90.8641 21.8736V34.0026C90.8641 35.0166 90.9551 35.8746 91.1371 36.5766C91.3191 37.2526 91.6701 37.7726 92.1901 38.1366C92.7101 38.5006 93.4771 38.7086 94.4911 38.7606V39.5406C93.4251 39.4626 92.0861 39.4236 90.4741 39.4236C89.9281 39.4236 89.3561 39.4366 88.7581 39.4626C88.1861 39.4626 87.7051 39.4886 87.3151 39.5406V38.7606C88.0691 38.7086 88.6411 38.4876 89.0311 38.0976C89.4211 37.6816 89.6811 37.1096 89.8111 36.3816C89.9411 35.6536 90.0061 34.7826 90.0061 33.7686V23.5116C90.0061 22.5496 89.9411 21.8476 89.8111 21.4056C89.6811 20.9376 89.4211 20.6256 89.0311 20.4696C88.6411 20.2876 88.0691 20.1836 87.3151 20.1576V19.3776C87.7051 19.4036 88.1861 19.4296 88.7581 19.4556C89.3561 19.4816 89.9281 19.4946 90.4741 19.4946C92.4761 19.4946 94.2181 19.4556 95.7001 19.3776L101.238 33.3006L99.8341 35.4846L106.386 19.4946C106.854 19.4946 107.374 19.5076 107.946 19.5336C108.518 19.5336 109.051 19.5336 109.545 19.5336C110.481 19.5336 111.378 19.5206 112.236 19.4946C113.12 19.4426 113.822 19.4036 114.342 19.3776ZM138.061 19.4166V20.2356C137.229 20.2356 136.644 20.4306 136.306 20.8206C135.968 21.2106 135.799 21.9516 135.799 23.0436V35.9136C135.799 37.0056 135.968 37.7466 136.306 38.1366C136.67 38.5266 137.255 38.7216 138.061 38.7216V39.5406C137.593 39.5146 136.904 39.4886 135.994 39.4626C135.084 39.4106 134.109 39.3846 133.069 39.3846C132.029 39.3846 130.963 39.4106 129.871 39.4626C128.779 39.4886 127.947 39.5146 127.375 39.5406V38.7216C128.337 38.7216 129.039 38.5266 129.481 38.1366C129.949 37.7466 130.183 37.0056 130.183 35.9136V23.0436C130.183 21.9516 130.027 21.2106 129.715 20.8206C129.403 20.4306 128.857 20.2356 128.077 20.2356H127.726C127.024 20.2356 126.582 20.4436 126.4 20.8596C126.244 21.2496 126.114 21.9776 126.01 23.0436C125.802 25.4616 125.542 27.7886 125.23 30.0246C124.944 32.2606 124.463 34.2626 123.787 36.0306C123.293 37.2266 122.682 38.2016 121.954 38.9556C121.226 39.7096 120.329 40.0866 119.263 40.0866C118.691 40.0866 118.119 39.9696 117.547 39.7356C116.975 39.5016 116.494 39.1246 116.104 38.6046C115.714 38.0586 115.519 37.3696 115.519 36.5376C115.519 35.5496 115.805 34.7826 116.377 34.2366C116.975 33.6646 117.716 33.3786 118.6 33.3786C119.51 33.3786 120.212 33.6516 120.706 34.1976C121.2 34.7436 121.447 35.4066 121.447 36.1866C121.447 36.9926 121.213 37.6426 120.745 38.1366C120.277 38.6306 119.679 39.0336 118.951 39.3456C119.003 39.3716 119.081 39.3976 119.185 39.4236C119.289 39.4236 119.38 39.4236 119.458 39.4236C120.082 39.4236 120.615 39.2416 121.057 38.8776C121.499 38.5136 121.889 38.0586 122.227 37.5126C122.565 36.9406 122.851 36.3816 123.085 35.8356C123.527 34.7176 123.878 33.4566 124.138 32.0526C124.424 30.6226 124.658 29.1276 124.84 27.5676C125.022 26.0076 125.165 24.4996 125.269 23.0436C125.347 21.9516 125.113 21.2106 124.567 20.8206C124.047 20.4306 123.254 20.2356 122.188 20.2356V19.4166C122.396 19.4426 122.721 19.4686 123.163 19.4946C123.631 19.4946 124.125 19.4946 124.645 19.4946C125.217 19.4946 125.763 19.4946 126.283 19.4946C126.803 19.4686 127.466 19.4556 128.272 19.4556C129.338 19.4556 130.209 19.4816 130.885 19.5336C131.587 19.5596 132.38 19.5726 133.264 19.5726C134.096 19.5726 134.98 19.5596 135.916 19.5336C136.878 19.4816 137.593 19.4426 138.061 19.4166ZM163.075 19.4166V20.2356C162.165 20.2356 161.515 20.4306 161.125 20.8206C160.761 21.2106 160.579 21.9516 160.579 23.0436V35.9136C160.579 37.0056 160.761 37.7466 161.125 38.1366C161.515 38.5266 162.165 38.7216 163.075 38.7216V39.5406C162.581 39.5146 161.827 39.4886 160.813 39.4626C159.825 39.4106 158.863 39.3846 157.927 39.3846C156.939 39.3846 155.964 39.4106 155.002 39.4626C154.066 39.4886 153.351 39.5146 152.857 39.5406V38.7216C153.637 38.7216 154.183 38.5266 154.495 38.1366C154.807 37.7466 154.963 37.0056 154.963 35.9136V23.0436C154.963 21.9516 154.807 21.2106 154.495 20.8206C154.183 20.4306 153.637 20.2356 152.857 20.2356V19.4166C153.325 19.4426 154.014 19.4816 154.924 19.5336C155.834 19.5596 156.757 19.5726 157.693 19.5726C158.707 19.5726 159.721 19.5596 160.735 19.5336C161.775 19.4816 162.555 19.4426 163.075 19.4166ZM150.322 19.4166V20.2356C149.568 20.2356 149.022 20.4306 148.684 20.8206C148.372 21.2106 148.216 21.9516 148.216 23.0436V35.9136C148.216 37.0056 148.372 37.7466 148.684 38.1366C149.022 38.5266 149.568 38.7216 150.322 38.7216V39.5406C149.854 39.5146 149.165 39.4886 148.255 39.4626C147.371 39.4106 146.448 39.3846 145.486 39.3846C144.498 39.3846 143.484 39.4106 142.444 39.4626C141.404 39.4886 140.624 39.5146 140.104 39.5406V38.7216C141.014 38.7216 141.651 38.5266 142.015 38.1366C142.405 37.7466 142.6 37.0056 142.6 35.9136V23.0436C142.6 21.9516 142.405 21.2106 142.015 20.8206C141.651 20.4306 141.014 20.2356 140.104 20.2356V19.4166C140.598 19.4426 141.339 19.4816 142.327 19.5336C143.341 19.5596 144.316 19.5726 145.252 19.5726C146.266 19.5726 147.241 19.5596 148.177 19.5336C149.139 19.4816 149.854 19.4426 150.322 19.4166ZM156.991 28.7766V29.5566H145.993V28.7766H156.991Z" fill="#2671E7"/>
</svg>
