<svg width="73" height="41" viewBox="0 0 73 41" fill="none" xmlns="http://www.w3.org/2000/svg">
<path d="M23.1751 19.8326H13.5031V10.3166H10.2271V19.8326H0.555138V22.9006H10.2271V32.3646H13.5031V22.9006H23.1751V19.8326ZM41.6453 2.20465V34.4446C41.6453 35.5193 41.7493 36.3513 41.9573 36.9406C42.1653 37.4953 42.5466 37.894 43.1013 38.1366C43.656 38.3446 44.4186 38.4486 45.3893 38.4486V39.5406C44.6266 39.506 43.5693 39.4713 42.2173 39.4366C40.8653 39.3673 39.4613 39.3326 38.0053 39.3326C36.3066 39.3326 34.6253 39.3673 32.9613 39.4366C31.2973 39.4713 29.9973 39.506 29.0613 39.5406V38.4486C30.3786 38.4486 31.4013 38.31 32.1293 38.0326C32.8573 37.7553 33.3773 37.27 33.6893 36.5766C34.0013 35.8486 34.1573 34.826 34.1573 33.5086V10.5246C34.1573 8.72198 33.7586 7.59532 32.9613 7.14465C32.164 6.69398 30.656 6.46865 28.4373 6.46865V5.37665C31.8346 4.96065 34.556 4.47531 36.6013 3.92065C38.6466 3.33131 40.328 2.75931 41.6453 2.20465ZM70.019 0.124649C69.9843 0.575314 69.9497 1.14731 69.915 1.84065C69.8803 2.49931 69.863 3.12331 69.863 3.71265C69.863 4.50998 69.8803 5.30732 69.915 6.10465C69.9843 6.90198 70.0883 7.76865 70.227 8.70465H52.911L52.131 19.5206C53.3097 18.5846 54.6097 17.926 56.031 17.5446C57.4523 17.1286 58.9777 16.9206 60.607 16.9206C62.9643 16.9206 65.0443 17.354 66.847 18.2206C68.6497 19.0873 70.071 20.3526 71.111 22.0166C72.1857 23.6806 72.723 25.674 72.723 27.9966C72.723 30.562 72.099 32.7633 70.851 34.6006C69.603 36.4033 67.9217 37.8073 65.807 38.8126C63.727 39.7833 61.3697 40.2686 58.735 40.2686C57.5563 40.2686 56.3257 40.13 55.043 39.8526C53.795 39.5753 52.6857 39.1073 51.715 38.4486C50.8137 37.8593 50.1203 37.1833 49.635 36.4206C49.1497 35.6233 48.907 34.7913 48.907 33.9246C48.907 32.8153 49.271 31.8793 49.999 31.1166C50.727 30.354 51.715 29.9726 52.963 29.9726C54.0377 29.9726 54.9217 30.2846 55.615 30.9086C56.343 31.5326 56.707 32.4513 56.707 33.6646C56.707 34.7393 56.395 35.6406 55.771 36.3686C55.1817 37.0966 54.3843 37.634 53.379 37.9806C53.7603 38.362 54.3323 38.674 55.095 38.9166C55.8923 39.1593 56.759 39.2806 57.695 39.2806C59.0123 39.2806 60.2083 38.986 61.283 38.3966C62.3577 37.8073 63.2243 36.7326 63.883 35.1726C64.5417 33.578 64.871 31.3073 64.871 28.3606C64.871 25.1713 64.2643 22.6926 63.051 20.9246C61.8723 19.1566 60.2777 18.2726 58.267 18.2726C57.539 18.2726 56.603 18.4286 55.459 18.7406C54.315 19.018 53.1537 19.6766 51.975 20.7166L51.039 20.5086L52.495 2.51665C53.1883 2.65532 53.9683 2.72465 54.835 2.72465H65.131C66.3443 2.72465 67.2457 2.53398 67.835 2.15265C68.4243 1.77131 68.8057 1.09532 68.979 0.124649H70.019Z" fill="#2671E7"/>
</svg>
