<svg width="147" height="40" viewBox="0 0 147 40" fill="none" xmlns="http://www.w3.org/2000/svg">
<path d="M22.9719 18.7947H13.2813V9.26045H9.99902V18.7947H0.308423V21.8686H9.99902V31.3508H13.2813V21.8686H22.9719V18.7947ZM41.4776 1.13285V33.4348C41.4776 34.5116 41.5818 35.3452 41.7902 35.9356C41.9986 36.4914 42.3807 36.8908 42.9364 37.1339C43.4921 37.3423 44.2563 37.4465 45.2288 37.4465V38.5406C44.4647 38.5059 43.4053 38.4712 42.0507 38.4364C40.6961 38.367 39.2894 38.3322 37.8306 38.3322C36.1287 38.3322 34.4441 38.367 32.7769 38.4364C31.1097 38.4712 29.8072 38.5059 28.8694 38.5406V37.4465C30.1893 37.4465 31.2139 37.3076 31.9433 37.0297C32.6727 36.7519 33.1937 36.2656 33.5063 35.5709C33.8189 34.8415 33.9752 33.8169 33.9752 32.497V9.46885C33.9752 7.66272 33.5758 6.53388 32.7769 6.08235C31.978 5.63082 30.4671 5.40505 28.2442 5.40505V4.31095C31.6481 3.89415 34.3746 3.40788 36.4239 2.85215C38.4732 2.26168 40.1577 1.68858 41.4776 1.13285ZM63.9665 0.924447C66.8493 0.924447 69.3675 1.67121 71.521 3.16475C73.7092 4.65828 75.3937 6.81175 76.5747 9.62515C77.7903 12.4038 78.3982 15.7903 78.3982 19.7846C78.3982 23.6748 77.773 27.0786 76.5226 29.9962C75.3069 32.9138 73.605 35.1889 71.4168 36.8213C69.2286 38.4538 66.7278 39.27 63.9144 39.27C61.0315 39.27 58.496 38.5233 56.3078 37.0297C54.1543 35.5362 52.4697 33.3827 51.2541 30.5693C50.0731 27.7559 49.4827 24.3694 49.4827 20.4098C49.4827 16.5197 50.0905 13.1158 51.3062 10.1982C52.5566 7.28065 54.2759 5.00562 56.4641 3.37315C58.6523 1.74068 61.1531 0.924447 63.9665 0.924447ZM63.7581 1.86225C61.6393 1.86225 60.059 3.44261 59.017 6.60335C58.0097 9.76408 57.5061 14.2968 57.5061 20.2014C57.5061 26.2798 58.0965 30.8298 59.2775 33.8516C60.4584 36.8387 62.0735 38.3322 64.1228 38.3322C66.2415 38.3322 67.8045 36.7519 68.8118 33.5911C69.8538 30.4304 70.3748 25.8977 70.3748 19.993C70.3748 13.9147 69.7843 9.38202 68.6034 6.39495C67.4224 3.37315 65.8073 1.86225 63.7581 1.86225ZM98.0045 0.924447C100.887 0.924447 103.405 1.67121 105.559 3.16475C107.747 4.65828 109.432 6.81175 110.613 9.62515C111.828 12.4038 112.436 15.7903 112.436 19.7846C112.436 23.6748 111.811 27.0786 110.561 29.9962C109.345 32.9138 107.643 35.1889 105.455 36.8213C103.267 38.4538 100.766 39.27 97.9524 39.27C95.0695 39.27 92.534 38.5233 90.3458 37.0297C88.1923 35.5362 86.5077 33.3827 85.2921 30.5693C84.1111 27.7559 83.5207 24.3694 83.5207 20.4098C83.5207 16.5197 84.1285 13.1158 85.3442 10.1982C86.5946 7.28065 88.3139 5.00562 90.5021 3.37315C92.6903 1.74068 95.1911 0.924447 98.0045 0.924447ZM97.7961 1.86225C95.6773 1.86225 94.097 3.44261 93.055 6.60335C92.0477 9.76408 91.5441 14.2968 91.5441 20.2014C91.5441 26.2798 92.1345 30.8298 93.3155 33.8516C94.4964 36.8387 96.1115 38.3322 98.1608 38.3322C100.279 38.3322 101.842 36.7519 102.85 33.5911C103.892 30.4304 104.413 25.8977 104.413 19.993C104.413 13.9147 103.822 9.38202 102.641 6.39495C101.46 3.37315 99.8453 1.86225 97.7961 1.86225ZM132.042 0.924447C134.925 0.924447 137.443 1.67121 139.597 3.16475C141.785 4.65828 143.47 6.81175 144.651 9.62515C145.866 12.4038 146.474 15.7903 146.474 19.7846C146.474 23.6748 145.849 27.0786 144.599 29.9962C143.383 32.9138 141.681 35.1889 139.493 36.8213C137.305 38.4538 134.804 39.27 131.99 39.27C129.107 39.27 126.572 38.5233 124.384 37.0297C122.23 35.5362 120.546 33.3827 119.33 30.5693C118.149 27.7559 117.559 24.3694 117.559 20.4098C117.559 16.5197 118.166 13.1158 119.382 10.1982C120.633 7.28065 122.352 5.00562 124.54 3.37315C126.728 1.74068 129.229 0.924447 132.042 0.924447ZM131.834 1.86225C129.715 1.86225 128.135 3.44261 127.093 6.60335C126.086 9.76408 125.582 14.2968 125.582 20.2014C125.582 26.2798 126.173 30.8298 127.353 33.8516C128.534 36.8387 130.149 38.3322 132.199 38.3322C134.317 38.3322 135.88 36.7519 136.888 33.5911C137.93 30.4304 138.451 25.8977 138.451 19.993C138.451 13.9147 137.86 9.38202 136.679 6.39495C135.498 3.37315 133.883 1.86225 131.834 1.86225Z" fill="#2671E7"/>
</svg>
