<svg width="205" height="74" viewBox="0 0 205 74" fill="none" xmlns="http://www.w3.org/2000/svg">
<g clip-path="url(#clip0_528_10)">
<path d="M73.0841 35.9742H72.5853L67.2648 24.9924C67.3095 24.9553 67.3438 24.9074 67.3645 24.8532C67.4423 24.6691 67.4742 24.469 67.4576 24.27C67.4576 24.27 67.4576 24.0314 67.3246 24.0314C67.2791 24.0337 67.2351 24.0485 67.1975 24.0743C67.1599 24.1 67.1303 24.1356 67.1118 24.1772C67.0682 24.2735 66.9983 24.3556 66.9101 24.4142C66.8219 24.4728 66.719 24.5055 66.613 24.5086C66.5154 24.5107 66.4201 24.4787 66.3436 24.4182C66.267 24.3577 66.2142 24.2725 66.194 24.1772V19.8892C66.1923 19.7304 66.1277 19.5787 66.0144 19.467C65.9011 19.3554 65.7482 19.2927 65.5888 19.2927H64.9237V18.239C65.8125 17.8547 66.5588 17.2036 67.0586 16.3766C66.643 16.7633 66.1526 17.0614 65.6175 17.2528C65.0823 17.4443 64.5136 17.525 63.9461 17.49C57.7144 17.49 55.0342 13.719 51.4828 13.719C48.3171 13.719 46.528 14.786 45.3309 16.2441V14.4348C45.7468 14.2137 46.0945 13.8842 46.337 13.4815C46.5795 13.0788 46.7076 12.6179 46.7076 12.1483C46.7076 10.7101 45.1513 9.90153 44.1072 5.93164C43.0564 9.90816 41.4935 10.7101 41.4935 12.1483C41.4908 12.6161 41.6156 13.0758 41.8545 13.4785C42.0935 13.8812 42.4376 14.2117 42.8502 14.4348V16.2441C41.6464 14.7728 39.8574 13.6858 36.6651 13.6858C33.1136 13.6858 30.4334 17.4569 24.2017 17.4569C23.6409 17.4926 23.0786 17.4154 22.5485 17.2298C22.0183 17.0442 21.531 16.754 21.1158 16.3766C21.5803 17.1715 22.2761 17.8071 23.111 18.1992V19.3259H22.5191C22.3598 19.3259 22.2068 19.3885 22.0935 19.5002C21.9802 19.6118 21.9157 19.7635 21.9139 19.9223V24.2104C21.8936 24.3067 21.8397 24.3929 21.7618 24.4535C21.6839 24.5142 21.5871 24.5454 21.4883 24.5417C21.3831 24.539 21.2809 24.5063 21.1937 24.4476C21.1065 24.3889 21.0379 24.3066 20.9961 24.2104C20.9772 24.1678 20.9465 24.1315 20.9076 24.1057C20.8688 24.0799 20.8234 24.0656 20.7767 24.0645C20.6237 24.0645 20.6503 24.3031 20.6503 24.3031C20.6226 24.5481 20.6892 24.7944 20.8365 24.9924L15.516 35.9742H15.0903C15.0022 35.9742 14.9176 36.0091 14.8552 36.0713C14.7928 36.1334 14.7578 36.2177 14.7578 36.3056C14.7578 36.3935 14.7928 36.4778 14.8552 36.5399C14.9176 36.6021 15.0022 36.637 15.0903 36.637H15.4096L16.1278 37.7902C16.2576 37.9944 16.4374 38.1625 16.6504 38.2784C16.8633 38.3944 17.1023 38.4544 17.3449 38.4529H29.3826C29.634 38.4537 29.881 38.3878 30.0984 38.262C30.3158 38.1363 30.4957 37.9551 30.6196 37.7371L31.2847 36.6171H31.6771C31.7653 36.6171 31.8499 36.5822 31.9122 36.52C31.9746 36.4579 32.0096 36.3736 32.0096 36.2857C32.0096 36.1978 31.9746 36.1135 31.9122 36.0514C31.8499 35.9892 31.7653 35.9543 31.6771 35.9543H31.1783L25.8578 24.9725C25.8984 24.9318 25.932 24.8848 25.9575 24.8333C26.0385 24.6502 26.0706 24.4493 26.0506 24.2501C26.0506 24.2501 26.0506 24.0115 25.9243 24.0115C25.8776 24.0126 25.8321 24.0268 25.7933 24.0527C25.7544 24.0785 25.7237 24.1148 25.7048 24.1573C25.663 24.2536 25.5944 24.3359 25.5073 24.3946C25.4201 24.4533 25.3179 24.486 25.2127 24.4887C25.1139 24.4924 25.017 24.4611 24.9391 24.4005C24.8612 24.3399 24.8073 24.2537 24.787 24.1573V19.8892C24.7853 19.7315 24.7217 19.5808 24.6098 19.4693C24.4979 19.3579 24.3467 19.2945 24.1884 19.2927H23.5234V18.3649C24.4186 18.7262 25.3776 18.9043 26.3433 18.8885C30.3337 18.8885 33.4395 17.152 36.4057 17.152C39.3719 17.152 41.0612 18.789 41.6531 21.1816C41.7092 21.5533 41.8452 21.9086 42.0518 22.2232C42.2584 22.5377 42.5308 22.8041 42.8502 23.0041V26.1588C41.6198 28.6707 40.9348 29.6052 40.9348 30.9108C40.9534 31.498 41.145 32.0669 41.4855 32.5465C41.8261 33.0261 42.3007 33.3953 42.8502 33.6082H41.8925V33.6745C41.8925 33.886 41.9764 34.089 42.1259 34.2392C42.2753 34.3894 42.4783 34.4746 42.6906 34.4764H42.8502V34.5294C42.3241 35.3141 42.0432 36.2367 42.0432 37.1804C42.0432 38.1242 42.3241 39.0467 42.8502 39.8314V44.146H42.9034C42.4645 44.146 42.4645 44.5303 42.4645 44.5303C42.4645 44.5303 42.0322 48.3014 41.7262 50.2698C41.4203 52.2382 38.9995 52.3773 38.9995 52.3773H36.4257C36.162 52.3766 35.9079 52.4752 35.7142 52.6535C35.5205 52.8317 35.4017 53.0764 35.3815 53.3383H34.0979C33.7409 53.3365 33.3973 53.4743 33.1412 53.7222C32.885 53.97 32.7366 54.3081 32.7279 54.6638H55.6926C55.6839 54.3093 55.5365 53.9721 55.2817 53.7245C55.027 53.4768 54.6852 53.3382 54.3293 53.3383H53.0457C53.0239 53.0758 52.9037 52.8311 52.7089 52.653C52.5142 52.4749 52.2592 52.3764 51.9949 52.3773H49.4277C49.4277 52.3773 47.0069 52.2382 46.7009 50.2698C46.395 48.3014 45.9627 44.5303 45.9627 44.5303C45.9627 44.5303 45.9627 44.1791 45.5238 44.146H45.3043V39.8977C45.8378 39.1072 46.1228 38.1762 46.1228 37.2235C46.1228 36.2708 45.8378 35.3398 45.3043 34.5493V34.5029H45.4373C45.6502 34.5012 45.8539 34.4161 46.0044 34.2661C46.155 34.1161 46.2403 33.9131 46.242 33.701V33.6082H45.3442C45.8929 33.3872 46.3638 33.0094 46.6975 32.5224C47.0312 32.0353 47.2129 31.4608 47.2197 30.871C47.2197 29.5455 46.5546 28.6309 45.3043 26.1257V23.0041C45.6214 22.8064 45.8932 22.5442 46.1017 22.2348C46.3103 21.9253 46.451 21.5754 46.5147 21.2081C47.1066 18.8155 48.7959 17.1785 51.7621 17.1785C54.7283 17.1785 57.8408 18.915 61.8245 18.915C62.7324 18.9251 63.6343 18.7678 64.4848 18.451V19.2927H63.8929C63.7342 19.2927 63.5819 19.3556 63.4696 19.4674C63.3574 19.5793 63.2943 19.731 63.2943 19.8892V24.1772C63.2728 24.273 63.2186 24.3584 63.141 24.4188C63.0634 24.4792 62.9672 24.511 62.8687 24.5086C62.7635 24.5058 62.6613 24.4732 62.5741 24.4145C62.4869 24.3558 62.4183 24.2735 62.3765 24.1772C62.3576 24.1347 62.3269 24.0984 62.2881 24.0725C62.2492 24.0467 62.2038 24.0325 62.1571 24.0314C62.0041 24.0314 62.0307 24.27 62.0307 24.27C62.0116 24.3972 62.0189 24.5269 62.0521 24.6511C62.0853 24.7754 62.1436 24.8915 62.2236 24.9924L56.9031 35.9742H56.4774C56.3892 35.9742 56.3046 36.0091 56.2423 36.0713C56.1799 36.1334 56.1449 36.2177 56.1449 36.3056C56.1449 36.3935 56.1799 36.4778 56.2423 36.5399C56.3046 36.6021 56.3892 36.637 56.4774 36.637H56.8166L57.5415 37.7902C57.6713 37.9944 57.8511 38.1625 58.064 38.2784C58.2769 38.3944 58.516 38.4544 58.7586 38.4529H70.783C71.0353 38.4542 71.2835 38.3886 71.5021 38.2628C71.7206 38.137 71.9016 37.9556 72.0267 37.7371L72.6917 36.6171H73.0841C73.1723 36.6171 73.2569 36.5822 73.3193 36.52C73.3816 36.4579 73.4166 36.3736 73.4166 36.2857C73.4166 36.1978 73.3816 36.1135 73.3193 36.0514C73.2569 35.9892 73.1723 35.9543 73.0841 35.9543V35.9742ZM23.1044 35.9742H15.9616L21.1956 25.1912C21.295 25.2032 21.3955 25.2032 21.4949 25.1912C22.426 25.1912 22.3263 24.1441 22.3263 24.1441H23.1044V35.9742ZM24.3414 24.1772C24.3414 24.1772 24.2417 25.2244 25.1728 25.2244C25.2722 25.2356 25.3726 25.2356 25.472 25.2244L30.7061 36.0074H23.5034V24.1772H24.3414ZM23.7362 20.4791C23.7352 20.558 23.7131 20.6352 23.6722 20.7027C23.6312 20.7703 23.573 20.8258 23.5034 20.8635C23.4428 20.8984 23.3739 20.9167 23.3039 20.9167C23.2339 20.9167 23.165 20.8984 23.1044 20.8635C23.0331 20.8275 22.9731 20.7725 22.9313 20.7047C22.8894 20.6368 22.8672 20.5587 22.8672 20.4791C22.8672 20.3994 22.8894 20.3213 22.9313 20.2534C22.9731 20.1856 23.0331 20.1306 23.1044 20.0947C23.1665 20.0642 23.2347 20.0484 23.3039 20.0484C23.3731 20.0484 23.4413 20.0642 23.5034 20.0947C23.573 20.1323 23.6312 20.1878 23.6722 20.2554C23.7131 20.3229 23.7352 20.4002 23.7362 20.4791ZM64.5247 35.9742H57.3885L62.616 25.1912C62.7154 25.2024 62.8158 25.2024 62.9153 25.1912C63.853 25.1912 63.7532 24.1441 63.7532 24.1441H64.5247V35.9742ZM64.5247 20.8635C64.4553 20.8259 64.3973 20.7703 64.3569 20.7027C64.3166 20.635 64.2952 20.5578 64.2952 20.4791C64.2952 20.4003 64.3166 20.3231 64.3569 20.2554C64.3973 20.1878 64.4553 20.1322 64.5247 20.0947C64.5863 20.063 64.6549 20.047 64.7242 20.0483C64.7958 20.0462 64.8667 20.0622 64.9304 20.0947C64.9998 20.1322 65.0578 20.1878 65.0982 20.2554C65.1386 20.3231 65.1599 20.4003 65.1599 20.4791C65.1599 20.5578 65.1386 20.635 65.0982 20.7027C65.0578 20.7703 64.9998 20.8259 64.9304 20.8635C64.8672 20.898 64.7963 20.9162 64.7242 20.9165C64.6544 20.9154 64.5858 20.8972 64.5247 20.8635ZM64.9304 35.9742V24.1772H65.7617C65.7617 24.1772 65.6686 25.2244 66.5997 25.2244C66.6992 25.2356 66.7996 25.2356 66.899 25.2244L72.1131 35.9742H64.9304Z" fill="url(#paint0_linear_528_10)"/>
<path d="M55.6393 73.2142C55.1538 73.2142 54.6683 73.2142 54.1961 73.1745C51.476 71.1862 51.3563 67.6405 51.3563 67.4947C51.9017 67.3953 52.4404 67.2892 52.9791 67.1699C52.9724 67.1699 53.1653 71.5109 55.6393 73.2142Z" fill="url(#paint1_linear_528_10)"/>
<path d="M65.9813 58.13C62.0308 64.8238 58.4527 66.1758 58.1003 66.2885C58.0404 66.1162 57.9939 65.924 57.9473 65.7318C57.535 65.8776 57.1226 66.0234 56.7036 66.156C56.7936 66.5959 56.925 67.0263 57.096 67.4417C57.1492 67.5809 57.2091 67.7333 57.2822 67.8857C57.8042 69.1643 58.7178 70.246 59.8929 70.9767C61.068 71.7074 62.4446 72.0498 63.8265 71.955C65.4556 71.4422 67.0322 70.7765 68.5351 69.9668L68.6017 69.927C68.2093 70.0065 61.1197 71.4248 58.6257 67.455C60.9133 67.3165 63.1201 66.5606 65.0098 65.2682C66.8995 63.9759 68.4008 62.1957 69.3532 60.1183C69.936 58.7724 70.2738 57.3339 70.3508 55.87C70.5218 53.5252 70.9546 51.2068 71.641 48.9575C69.9318 50.8397 67.3846 55.479 65.9813 58.13ZM59.2641 66.4741C59.2641 66.4741 63.5006 64.3002 64.9039 61.5034V62.7693C64.9039 62.7693 67.91 59.3429 68.861 56.3737C68.861 56.4002 69.2135 64.8901 59.2641 66.4873V66.4741Z" fill="url(#paint2_linear_528_10)"/>
<path d="M59.8559 72.8961C59.2972 72.9756 58.7386 73.0485 58.1799 73.0949C57.0289 72.4986 56.0577 71.6081 55.3658 70.5145C54.674 69.4209 54.2864 68.1637 54.2427 66.8717C54.6551 66.7722 55.0608 66.6596 55.4665 66.5403C55.4864 66.5403 56.1515 70.8879 59.8559 72.8961Z" fill="url(#paint3_linear_528_10)"/>
<path d="M78.9035 56.5659C78.9035 56.5659 78.2717 63.4652 72.858 67.0043C67.4444 70.5434 63.7932 69.0787 63.7932 69.0787C63.7932 69.0787 66.7261 67.6273 68.4486 66.653C68.8431 66.4295 69.292 66.3194 69.7455 66.3349C70.5847 66.4382 71.4335 66.4382 72.2728 66.3349C71.6032 66.2347 70.9472 66.059 70.3175 65.8113C70.3175 65.8113 75.638 63.9887 76.7021 59.7935C75.1717 62.028 72.9721 63.7236 70.4172 64.6382C67.9495 65.5283 65.6121 66.7431 63.4673 68.2502C64.8191 66.8064 66.3901 65.5831 68.1227 64.625C72.6984 62.6434 75.6247 61.013 78.9035 56.5659Z" fill="url(#paint4_linear_528_10)"/>
<path d="M71.1887 57.8317C71.1887 57.8317 77.1743 58.0371 81.5903 54.2197C82.8221 53.2433 83.7008 51.8933 84.0933 50.3744C84.4857 48.8555 84.3705 47.2505 83.7651 45.8027C83.3111 47.4917 82.2631 48.9618 80.8122 49.9449C78.3049 51.7476 76.7021 52.5959 74.647 54.392C73.7957 55.0548 72.9444 55.8567 71.1887 57.0894C71.1887 57.0894 80.6858 54.0209 83.4658 48.2748C83.4658 48.2748 82.3551 53.769 71.1887 57.8317Z" fill="url(#paint5_linear_528_10)"/>
<path d="M73.4432 52.47C73.4432 44.7622 78.4578 45.0472 79.2227 40.6001C79.2227 40.6001 82.149 47.7578 73.942 52.8544C75.6513 47.8771 76.9548 47.6518 79.0098 43.218C76.5624 47.4596 76.2232 46.598 73.4432 52.47Z" fill="url(#paint6_linear_528_10)"/>
<path d="M80.8588 45.9817C81.9827 38.8173 86.6715 39.8114 88.0415 35.7952C88.0415 35.7952 89.7574 42.8734 81.2778 46.3992C83.6121 42.0184 84.8691 41.9985 87.4562 38.1811C84.5565 41.7798 84.3637 40.9381 80.8588 45.9817Z" fill="url(#paint7_linear_528_10)"/>
<path d="M81.1847 41.4021C77.447 36.8291 80.5994 34.5426 78.9035 31.5337C78.9035 31.5337 84.1376 34.3504 81.6702 41.3822C80.2802 37.5979 80.9586 36.8225 80.0474 33.1906C80.646 36.9219 80.0275 36.5441 81.1847 41.4021Z" fill="url(#paint8_linear_528_10)"/>
<path d="M83.0468 38.9501C83.0468 33.0516 86.9507 33.2703 87.5493 29.8704C87.5493 29.8704 89.8172 35.3513 83.4392 39.2417C84.7693 35.4375 85.7802 35.2652 87.3764 31.8719C85.4943 35.1194 85.2349 34.4632 83.0468 38.9501Z" fill="url(#paint9_linear_528_10)"/>
<path d="M84.0377 32.5081C82.8539 26.8813 86.6116 26.3113 86.4985 22.9512C86.4985 22.9512 89.764 27.723 84.47 32.7069C84.9688 28.8165 85.8999 28.4454 86.7379 24.893C85.6006 28.3659 85.2149 27.7893 84.0377 32.5081Z" fill="url(#paint10_linear_528_10)"/>
<path d="M83.1532 34.3041C78.3248 31.1626 80.5794 28.114 78.112 25.8142C78.112 25.8142 83.805 26.8879 83.6055 34.145C81.1913 31.0367 81.6103 30.1221 79.6616 27.0204C81.3176 30.2944 80.6393 30.142 83.1532 34.3041Z" fill="url(#paint11_linear_528_10)"/>
<path d="M83.0202 27.1198C77.8859 25.0851 79.5951 21.3472 76.875 19.5909C76.875 19.5909 82.5281 19.2529 83.4259 26.8414C80.6326 24.2302 80.8787 23.1764 78.551 20.4458C80.6393 23.4083 79.9676 23.4349 83.0202 27.1198Z" fill="url(#paint12_linear_528_10)"/>
<path d="M84.3038 25.3702C81.7699 19.5048 84.9689 18.3781 84.0046 14.7661C85.2259 16.264 85.953 18.1014 86.0863 20.0268C86.2196 21.9522 85.7527 23.8717 84.7494 25.5226C84.1775 21.281 84.9157 20.764 84.7494 16.8405C84.6164 20.711 84.1243 20.1543 84.3038 25.3702Z" fill="url(#paint13_linear_528_10)"/>
<path d="M82.7542 17.5298C77.1676 10.5311 79.8877 8.78805 77.0546 4.44702C77.0546 4.44702 83.7052 9.74904 83.2862 17.7021C80.5329 12.5061 81.025 11.7837 78.8436 6.93897C80.6792 11.7373 79.8877 11.0745 82.7542 17.5298Z" fill="url(#paint14_linear_528_10)"/>
<path d="M81.7898 21.4466C75.3919 15.177 77.8792 13.1224 74.5339 9.15918C74.5339 9.15918 81.7898 13.646 82.3352 21.5261C78.9633 16.7013 79.369 15.9259 76.6089 11.386C79.0431 15.9391 78.1785 15.3957 81.7898 21.4466Z" fill="url(#paint15_linear_528_10)"/>
<path d="M78.4511 10.9686C70.6499 5.28214 72.3458 3.57224 68.0628 0C68.0628 0 76.13 4.16209 78.9832 11.0613C74.4208 6.73357 75.2987 6.9589 71.3881 2.90285C74.9994 6.9589 73.3035 5.56712 78.4511 10.9686Z" fill="url(#paint16_linear_528_10)"/>
<path d="M52.1013 72.989C49.3371 72.6297 46.6451 71.8473 44.1205 70.6694C41.5849 71.8491 38.8817 72.6315 36.1064 72.989C36.2129 72.8697 38.1549 70.4573 38.2746 67.687L39.3852 67.8328H39.4384L39.9638 67.8858L40.5557 67.9389H40.6356C41.0546 67.9389 41.4802 68.0051 41.9058 68.025H42.6441C42.8923 68.025 43.1384 68.025 43.3823 68.025H44.8454C45.0915 68.025 45.3442 68.025 45.5903 68.025H46.3219C46.7542 68.025 47.1732 67.972 47.5988 67.9389H47.6786L48.2639 67.8858L48.7959 67.8328H48.8358L49.9398 67.687C50.0595 70.4573 52.0015 72.8697 52.1013 72.989Z" fill="url(#paint17_linear_528_10)"/>
<path d="M32.5483 73.2142C33.0338 73.2142 33.5193 73.2142 33.9915 73.1745C36.7116 71.1862 36.8247 67.6405 36.8314 67.4947C36.286 67.3953 35.7407 67.2892 35.2086 67.1699C35.2153 67.1699 35.0224 71.5109 32.5483 73.2142Z" fill="url(#paint18_linear_528_10)"/>
<path d="M16.5469 48.9641C17.2333 51.2134 17.6661 53.5318 17.8371 55.8766C17.9141 57.3405 18.2519 58.779 18.8347 60.1249C19.7841 62.2029 21.2826 63.9845 23.1699 65.2792C25.0572 66.5738 27.2621 67.3328 29.5489 67.4748C27.0549 71.4513 19.9653 70.0264 19.5729 69.9469L19.6394 69.9866C21.1423 70.7963 22.7189 71.4621 24.3481 71.9749C25.7299 72.0697 27.1065 71.7273 28.2817 70.9966C29.4568 70.2659 30.3704 69.1841 30.8923 67.9056C30.9655 67.7532 31.0254 67.6007 31.0786 67.4615C31.2496 67.0462 31.381 66.6157 31.471 66.1758C31.052 66.0433 30.6396 65.8974 30.2273 65.7516C30.1807 65.9438 30.1275 66.136 30.0743 66.3084C29.7218 66.1957 26.1438 64.8437 22.1933 58.1499C20.8033 55.479 18.2428 50.8397 16.5469 48.9641ZM19.3268 56.4002C20.2779 59.3693 23.284 62.7958 23.284 62.7958V61.5167C24.6873 64.3135 28.9237 66.4873 28.9237 66.4873C18.9744 64.8901 19.3268 56.4002 19.3268 56.4002Z" fill="url(#paint19_linear_528_10)"/>
<path d="M28.3318 72.8961C28.8839 72.9756 29.4492 73.0485 30.0078 73.0949C31.1588 72.4986 32.13 71.6081 32.8219 70.5145C33.5138 69.4209 33.9014 68.1637 33.945 66.8717C33.5326 66.7722 33.127 66.6596 32.7213 66.5403C32.7213 66.5403 32.023 70.8879 28.3318 72.8961Z" fill="url(#paint20_linear_528_10)"/>
<path d="M9.28442 56.5659C9.28442 56.5659 9.94949 63.4652 15.3299 67.0043C20.7103 70.5434 24.3947 69.0787 24.3947 69.0787C24.3947 69.0787 21.4618 67.6273 19.7393 66.653C19.3448 66.4295 18.8959 66.3194 18.4424 66.3349C17.6032 66.4384 16.7543 66.4384 15.9151 66.3349C16.5847 66.2347 17.2406 66.059 17.8704 65.8113C17.8704 65.8113 12.5499 63.9887 11.4791 59.7935C13.0149 62.0257 15.2158 63.7204 17.7707 64.6382C20.2344 65.5396 22.567 66.7631 24.7073 68.2768C23.3555 66.8329 21.7845 65.6096 20.0518 64.6515C15.4895 62.6434 12.5632 61.013 9.28442 56.5659Z" fill="url(#paint21_linear_528_10)"/>
<path d="M16.9991 57.8317C16.9991 57.8317 11.0135 58.0371 6.59746 54.2197C5.36632 53.2428 4.48761 51.8932 4.09408 50.3748C3.70055 48.8563 3.81356 47.2515 4.41605 45.8027C4.87606 47.4906 5.92553 48.9595 7.37559 49.9449C9.88289 51.7476 11.4857 52.5959 13.5407 54.392C14.392 55.0548 15.2433 55.8567 16.9991 57.0894C16.9991 57.0894 7.50195 54.0209 4.72197 48.2748C4.72197 48.2748 5.83264 53.769 16.9991 57.8317Z" fill="url(#paint22_linear_528_10)"/>
<path d="M14.7712 52.47C14.7712 44.7622 9.75658 45.0472 8.99175 40.6001C8.99175 40.6001 6.06545 47.7578 14.2657 52.8544C12.5631 47.8771 11.2596 47.6518 9.20458 43.218C11.6254 47.4596 11.9646 46.598 14.7712 52.47Z" fill="url(#paint23_linear_528_10)"/>
<path d="M7.32905 45.9817C6.20509 38.8173 1.51637 39.8114 0.146332 35.7952C0.146332 35.7952 -1.56953 42.8734 6.91006 46.3992C4.57568 42.0184 3.31205 41.9985 0.731593 38.1811C3.61133 41.7798 3.82415 40.9381 7.32905 45.9817Z" fill="url(#paint24_linear_528_10)"/>
<path d="M7.00314 41.4021C10.7408 36.8291 7.58839 34.5426 9.28431 31.5337C9.28431 31.5337 4.05024 34.3504 6.51098 41.3822C7.90097 37.5979 7.22925 36.8225 8.14039 33.1906C7.54183 36.9219 8.16035 36.5441 7.00314 41.4021Z" fill="url(#paint25_linear_528_10)"/>
<path d="M5.14098 38.9501C5.14098 33.0516 1.23704 33.2703 0.638479 29.8704C0.638479 29.8704 -1.62939 35.3513 4.74859 39.2417C3.41846 35.4375 2.40756 35.2652 0.804745 31.8719C2.69353 35.1194 2.94626 34.4632 5.14098 38.9501Z" fill="url(#paint26_linear_528_10)"/>
<path d="M4.15004 32.5081C5.33385 26.8813 1.57623 26.3113 1.68929 22.9512C1.68929 22.9512 -1.57618 27.723 3.68449 32.7069C3.18569 28.8165 2.2546 28.4454 1.41661 24.893C2.58713 28.3659 2.94627 27.7893 4.15004 32.5081Z" fill="url(#paint27_linear_528_10)"/>
<path d="M5.02787 34.3041C9.8629 31.1626 7.60832 28.114 10.0757 25.8142C10.0757 25.8142 4.38275 26.8879 4.58227 34.145C6.99646 31.0367 6.57747 30.1221 8.52611 27.0204C6.8701 30.2944 7.54847 30.142 5.02787 34.3041Z" fill="url(#paint28_linear_528_10)"/>
<path d="M5.16759 27.1198C10.3019 25.0851 8.58603 21.3472 11.3128 19.5909C11.3128 19.5909 5.65974 19.2529 4.7619 26.8414C7.55518 24.2302 7.30911 23.1764 9.63684 20.4458C7.54853 23.4083 8.22025 23.4349 5.16759 27.1198Z" fill="url(#paint29_linear_528_10)"/>
<path d="M3.88401 25.3702C6.41791 19.5048 3.21894 18.3781 4.18329 14.7661C2.96881 16.2623 2.24639 18.0951 2.1143 20.015C1.98221 21.9349 2.44687 23.8487 3.44506 25.4961C4.01702 21.2545 3.2788 20.7375 3.44506 16.814C3.57142 20.711 4.06358 20.1543 3.88401 25.3702Z" fill="url(#paint30_linear_528_10)"/>
<path d="M5.45352 17.5298C11.0401 10.5311 8.31995 8.78805 11.1531 4.44702C11.1531 4.44702 4.50247 9.74904 4.92146 17.7021C7.67484 12.5061 7.18268 11.7837 9.3641 6.93897C7.50857 11.7373 8.26675 11.0745 5.45352 17.5298Z" fill="url(#paint31_linear_528_10)"/>
<path d="M6.39796 21.4466C12.7959 15.177 10.3086 13.1224 13.6538 9.15918C13.6538 9.15918 6.39795 13.646 5.8526 21.5261C9.21783 16.7013 8.81881 15.9259 11.5788 11.386C9.14469 15.9391 10.0093 15.3957 6.39796 21.4466Z" fill="url(#paint32_linear_528_10)"/>
<path d="M9.73657 10.9686C17.5378 5.28214 15.8419 3.57224 20.1249 0C20.1249 0 12.0577 4.16209 9.20453 11.0613C13.7669 6.73357 12.889 6.9589 16.7996 2.90285C13.1883 6.9589 14.9174 5.56712 9.73657 10.9686Z" fill="url(#paint33_linear_528_10)"/>
<path d="M121.867 13.0032V13.5135C121.456 13.515 121.049 13.5867 120.663 13.7256C120.529 13.7759 120.409 13.8575 120.313 13.9636C120.217 14.0697 120.147 14.1971 120.111 14.3353C120 14.7906 119.953 15.259 119.971 15.7271V28.3857C119.954 28.8494 120.001 29.3132 120.111 29.7642C120.145 29.9043 120.213 30.0339 120.309 30.1414C120.406 30.2489 120.527 30.3311 120.663 30.3805C121.062 30.505 121.476 30.5742 121.893 30.586V31.0963C121.414 31.0963 120.809 31.0367 120.084 31.03H117.863H115.555C114.837 31.03 114.258 31.03 113.813 31.0963V30.586C114.263 30.5731 114.71 30.504 115.143 30.3805C115.286 30.3344 115.415 30.2541 115.519 30.1466C115.624 30.0392 115.7 29.9079 115.741 29.7642C115.864 29.3153 115.915 28.8503 115.894 28.3857V14.5606H116.074L109.716 31.1295H109.304L102.347 14.6601V26.9011C102.331 27.6244 102.383 28.3477 102.5 29.0617C102.529 29.2772 102.603 29.4843 102.717 29.6693C102.832 29.8543 102.985 30.0131 103.165 30.1353C103.678 30.3968 104.239 30.5502 104.814 30.586V31.0963C104.489 31.0963 104.063 31.0367 103.531 31.03H102.048H100.844C100.499 31.0343 100.155 31.0564 99.8131 31.0963V30.586C100.253 30.5409 100.675 30.3909 101.043 30.1486C101.348 29.8942 101.546 29.5344 101.595 29.1412C101.704 28.5043 101.753 27.8586 101.742 27.2126V15.7138C101.758 15.2454 101.709 14.7769 101.595 14.3221C101.558 14.1834 101.488 14.0558 101.39 13.9497C101.293 13.8436 101.172 13.7622 101.037 13.7123C100.643 13.58 100.229 13.515 99.8131 13.5201V13.0098L100.844 13.0562C101.25 13.0562 101.655 13.0562 102.048 13.0562C102.779 13.0562 103.504 13.0562 104.216 13.0562L106.098 13.0098L111.485 25.9666L110.82 26.5498L116.007 13.0628H117.83C118.581 13.0628 119.326 13.0628 120.051 13.0628L121.867 13.0032Z" fill="url(#paint34_linear_528_10)"/>
<path d="M132.149 12.9502L138.38 28.9689C138.535 29.4529 138.812 29.8889 139.185 30.2348C139.416 30.4308 139.697 30.5592 139.996 30.6059V31.1162C139.484 31.1162 138.879 31.0566 138.187 31.05H136.099H133.865C133.166 31.05 132.608 31.05 132.202 31.1162V30.6059C132.789 30.6625 133.376 30.5021 133.851 30.1553C134.084 29.8902 134.031 29.3268 133.685 28.4586L129.309 16.5556L129.768 15.8928L125.87 26.013C125.475 26.921 125.237 27.889 125.165 28.8761C125.137 29.133 125.181 29.3926 125.291 29.6265C125.401 29.8603 125.574 30.0594 125.791 30.2016C126.3 30.4586 126.862 30.5947 127.433 30.5993V31.1096C126.868 31.1096 126.329 31.05 125.817 31.0433H124.254H123.19C122.894 31.0494 122.599 31.0716 122.306 31.1096V30.5993C122.732 30.4931 123.116 30.2623 123.41 29.9365C123.896 29.3461 124.27 28.6723 124.514 27.9483L130.36 12.9966C130.632 12.9966 130.925 12.9966 131.244 12.9966C131.563 12.9966 131.876 12.9701 132.149 12.9502ZM133.964 23.7332V24.2435H126.303L126.555 23.7332H133.964Z" fill="url(#paint35_linear_528_10)"/>
<path d="M140.176 13.0032L141.905 13.0496C142.63 13.0496 143.355 13.0496 144.073 13.0496C144.891 13.0496 145.689 13.0496 146.461 13.0496H148.097C150.478 13.0496 152.251 13.4362 153.417 14.2094C153.977 14.5514 154.436 15.0352 154.747 15.6116C155.057 16.1879 155.209 16.8361 155.187 17.49C155.183 18.0931 155.061 18.6897 154.827 19.2463C154.555 19.8772 154.138 20.4356 153.61 20.8767C152.92 21.4359 152.117 21.8405 151.256 22.063C150.036 22.3883 148.775 22.5379 147.512 22.507H145.071V21.9967H147.266C148.072 22.0516 148.876 21.8497 149.56 21.4201C150.076 21.0394 150.454 20.5022 150.637 19.8892C150.842 19.1965 150.941 18.4771 150.93 17.7551C150.993 16.6656 150.744 15.5806 150.212 14.6269C149.936 14.2418 149.564 13.9359 149.132 13.7404C148.7 13.5449 148.223 13.4666 147.751 13.5135C147.516 13.4791 147.276 13.5002 147.051 13.575C146.826 13.6498 146.621 13.7763 146.454 13.9443C146.209 14.4979 146.108 15.1044 146.162 15.7072V28.3857C146.145 28.8494 146.191 29.3132 146.301 29.7642C146.337 29.9036 146.405 30.0324 146.502 30.1397C146.598 30.247 146.718 30.3296 146.853 30.3805C147.252 30.5044 147.666 30.5736 148.084 30.586V31.0963C147.625 31.0963 147.046 31.0367 146.341 31.03H144.213H141.892C141.167 31.03 140.562 31.03 140.163 31.0963V30.586C140.58 30.5736 140.994 30.5044 141.393 30.3805C141.528 30.3296 141.649 30.247 141.745 30.1397C141.841 30.0324 141.91 29.9036 141.945 29.7642C142.055 29.3132 142.102 28.8494 142.085 28.3857V15.7138C142.103 15.2457 142.056 14.7773 141.945 14.3221C141.906 14.183 141.835 14.0551 141.736 13.949C141.638 13.843 141.516 13.7618 141.38 13.7123C140.988 13.58 140.576 13.515 140.163 13.5201L140.176 13.0032ZM145.024 22.0763C145.756 22.0763 146.394 22.1227 146.933 22.1757L148.356 22.3148C148.769 22.3612 149.134 22.3878 149.46 22.4076C150.676 22.4351 151.863 22.7777 152.905 23.4018C153.681 23.9764 154.201 24.8301 154.355 25.781L154.947 28.4321C155.034 28.9313 155.198 29.4142 155.433 29.8636C155.508 29.9926 155.617 30.099 155.748 30.1713C155.879 30.2436 156.028 30.2793 156.177 30.2745C156.373 30.2649 156.563 30.2055 156.729 30.1022C156.904 29.9831 157.062 29.8429 157.202 29.6847L157.561 29.9895C157.158 30.4745 156.651 30.8639 156.078 31.1295C155.464 31.3718 154.809 31.489 154.149 31.4741C153.347 31.5044 152.554 31.2993 151.868 30.8842C151.532 30.6224 151.254 30.2941 151.051 29.92C150.849 29.5459 150.726 29.1341 150.691 28.7104L150.225 26.1588C150.123 25.5226 149.978 24.8938 149.793 24.2766C149.655 23.8057 149.414 23.3711 149.088 23.0041C148.925 22.8439 148.73 22.7194 148.516 22.6383C148.302 22.5573 148.073 22.5216 147.844 22.5336H145.071L145.024 22.0763Z" fill="url(#paint36_linear_528_10)"/>
<path d="M171.926 12.9767V13.487C171.476 13.694 171.079 14.0025 170.769 14.3884C170.249 15.0209 169.803 15.7102 169.439 16.4429L164.597 25.9998H163.387L157.401 14.9385C157.204 14.5064 156.924 14.1169 156.577 13.7919C156.391 13.6301 156.158 13.5324 155.911 13.5135V12.9767C156.377 13.0297 156.849 13.0629 157.335 13.0761C157.82 13.0894 158.359 13.0761 158.938 13.0761C159.696 13.0761 160.507 13.0761 161.378 13.0364C162.25 12.9966 163.041 12.9833 163.759 12.9502V13.487C163.373 13.4834 162.988 13.5167 162.609 13.5864C162.332 13.6194 162.077 13.7513 161.89 13.9576C161.753 14.1343 161.786 14.4193 161.99 14.8125L166.047 22.5866L165.256 23.6669L167.916 18.3649C168.436 17.4755 168.78 16.4943 168.927 15.4753C168.975 15.2028 168.954 14.9226 168.864 14.6606C168.775 14.3987 168.62 14.1636 168.415 13.9775C167.938 13.652 167.369 13.4871 166.792 13.5069V12.9966L168.428 13.0496C168.94 13.0496 169.466 13.0496 169.998 13.0496C170.37 13.0496 170.723 13.0496 171.062 13.0496L171.926 12.9767ZM166.433 21.9703V28.3857C166.405 28.8486 166.446 29.313 166.553 29.7642C166.586 29.9043 166.655 30.0339 166.751 30.1414C166.847 30.249 166.969 30.3311 167.105 30.3806C167.503 30.5051 167.917 30.5742 168.335 30.586V31.0964C167.869 31.0964 167.277 31.0367 166.553 31.0301H164.384H162.103C161.385 31.0301 160.82 31.0301 160.407 31.0964V30.586C160.825 30.5736 161.239 30.5045 161.638 30.3806C161.773 30.3296 161.893 30.247 161.989 30.1397C162.085 30.0324 162.154 29.9036 162.19 29.7642C162.299 29.3133 162.346 28.8494 162.329 28.3857V23.15L164.564 24.7339L166.433 21.9703Z" fill="url(#paint37_linear_528_10)"/>
<path d="M180.08 12.9502L186.312 28.9689C186.466 29.4529 186.743 29.8889 187.116 30.2348C187.347 30.4308 187.628 30.5592 187.928 30.6059V31.1162C187.416 31.1162 186.81 31.0566 186.119 31.05H184.024H181.796C181.131 31.05 180.539 31.05 180.126 31.1162V30.6059C180.715 30.6611 181.304 30.5009 181.783 30.1553C182.015 29.8902 181.955 29.3268 181.616 28.4586L177.253 16.5755L177.719 15.9127L173.822 26.0329C173.423 26.9398 173.185 27.9084 173.117 28.896C173.088 29.1529 173.132 29.4125 173.242 29.6464C173.353 29.8802 173.525 30.0792 173.742 30.2215C174.251 30.4785 174.814 30.6146 175.385 30.6192V31.1295C174.819 31.1295 174.281 31.0699 173.768 31.0632H172.206H171.141C170.846 31.0691 170.55 31.0912 170.257 31.1295V30.6192C170.683 30.513 171.067 30.2822 171.361 29.9564C171.844 29.3653 172.216 28.6916 172.458 27.9682L178.311 13.0165C178.584 13.0165 178.876 13.0165 179.195 13.0165C179.515 13.0165 179.801 12.9701 180.08 12.9502ZM181.849 23.7332V24.2435H174.201L174.46 23.7332H181.849Z" fill="url(#paint38_linear_528_10)"/>
<path d="M205.007 13.0032V13.5135C204.567 13.5419 204.142 13.6859 203.776 13.931C203.476 14.1922 203.28 14.5521 203.224 14.945C203.117 15.5865 203.07 16.2367 203.085 16.8869V31.1427C202.878 31.1427 202.666 31.1427 202.453 31.1427H201.788L190.654 17.0924V26.9011C190.637 27.6247 190.691 28.3484 190.814 29.0617C190.841 29.2777 190.915 29.4854 191.029 29.6706C191.144 29.8559 191.298 30.0144 191.479 30.1353C191.992 30.3968 192.554 30.5502 193.129 30.586V31.0963C192.809 31.0963 192.377 31.0367 191.852 31.03H190.362H189.158C188.816 31.0342 188.474 31.0564 188.134 31.0963V30.586C188.573 30.5384 188.994 30.3886 189.364 30.1486C189.664 29.8902 189.86 29.5324 189.916 29.1412C190.022 28.504 190.069 27.8584 190.056 27.2126V15.7138C190.074 15.2457 190.027 14.7773 189.916 14.3221C189.876 14.1837 189.804 14.0565 189.706 13.9507C189.608 13.8448 189.486 13.7632 189.351 13.7123C188.959 13.5805 188.548 13.5155 188.134 13.5201V13.0098L189.165 13.0628C189.57 13.0628 189.976 13.0628 190.369 13.0628C190.761 13.0628 191.173 13.0628 191.546 13.0628L192.577 13.0164L202.466 25.1912V17.1918C202.481 16.4684 202.43 15.7452 202.313 15.0312C202.281 14.8147 202.206 14.6069 202.092 14.4201C201.978 14.2333 201.827 14.0715 201.648 13.9443C201.135 13.6798 200.569 13.5326 199.992 13.5135V13.0032L201.276 13.0496C201.801 13.0496 202.3 13.0496 202.759 13.0496C203.218 13.0496 203.577 13.0496 203.976 13.0496L205.007 13.0032Z" fill="url(#paint39_linear_528_10)"/>
<path d="M107.734 43.6687V44.2122C107.312 44.209 106.892 44.2739 106.49 44.4044C106.356 44.4558 106.235 44.5386 106.139 44.6458C106.043 44.753 105.974 44.8816 105.938 45.0207C105.836 45.4773 105.794 45.9451 105.812 46.4125V59.0843C105.795 59.548 105.842 60.0119 105.952 60.4629C105.986 60.6027 106.054 60.732 106.151 60.8395C106.247 60.9469 106.368 61.0292 106.504 61.0792C106.903 61.2031 107.316 61.2722 107.734 61.2847V61.795C107.275 61.795 106.69 61.742 105.992 61.7287H103.863H101.542C100.831 61.7287 100.252 61.7618 99.8131 61.795V61.2847C100.231 61.2715 100.644 61.2024 101.043 61.0792C101.178 61.0282 101.299 60.9456 101.395 60.8383C101.491 60.731 101.56 60.6022 101.595 60.4629C101.705 60.0119 101.752 59.548 101.735 59.0843V46.3794C101.754 45.9112 101.707 45.4428 101.595 44.9876C101.554 44.8489 101.482 44.7213 101.384 44.6145C101.286 44.5077 101.165 44.4245 101.03 44.3712C100.637 44.2427 100.227 44.1778 99.8131 44.179V43.6687L101.542 43.7217C102.247 43.7217 103.025 43.7217 103.863 43.7217C104.582 43.7217 105.287 43.7217 105.992 43.7217L107.734 43.6687Z" fill="url(#paint40_linear_528_10)"/>
<path d="M125.984 43.6687V44.2122C125.52 44.413 125.11 44.7194 124.786 45.1069C124.268 45.7447 123.874 46.4728 123.623 47.2542L118.209 61.8347C118.065 61.8242 117.92 61.8242 117.777 61.8347H116.879C116.733 61.8245 116.586 61.8245 116.44 61.8347L109.902 45.8359C109.749 45.353 109.474 44.9173 109.104 44.57C108.875 44.3668 108.59 44.2374 108.286 44.1989V43.6886L110.095 43.7416C110.76 43.7416 111.485 43.7416 112.183 43.7416C112.882 43.7416 113.706 43.7416 114.405 43.7416L116.081 43.6886V44.2122C115.501 44.171 114.924 44.32 114.438 44.6363C114.185 44.8815 114.238 45.4581 114.598 46.3595L119.253 58.1896L118.714 58.8524L122.252 49.3419C122.647 48.3797 122.889 47.3625 122.971 46.3263C123.007 46.0389 122.977 45.747 122.884 45.4727C122.791 45.1983 122.636 44.9486 122.432 44.7424C121.972 44.3904 121.402 44.2099 120.823 44.232V43.7217L122.459 43.7747C122.971 43.7747 123.496 43.7747 124.022 43.7747C124.401 43.7747 124.753 43.7747 125.092 43.7747L125.984 43.6687Z" fill="url(#paint41_linear_528_10)"/>
<path d="M133.253 43.6157L139.484 59.6146C139.637 60.0993 139.915 60.5357 140.289 60.8804C140.518 61.0789 140.8 61.2076 141.1 61.2516V61.7619C140.588 61.7619 139.983 61.7089 139.291 61.6956H137.203H134.969C134.27 61.6956 133.712 61.7288 133.299 61.7619V61.2516C133.888 61.308 134.477 61.1477 134.955 60.8009C135.188 60.5424 135.128 59.9725 134.789 59.1043L130.433 47.2211L130.892 46.5583L126.994 56.6786C126.598 57.586 126.359 58.5543 126.289 59.5417C126.261 59.7985 126.305 60.0582 126.415 60.292C126.525 60.5259 126.698 60.7249 126.915 60.8672C127.424 61.1241 127.986 61.2602 128.557 61.2648V61.7752C127.992 61.7752 127.453 61.7221 126.941 61.7089H125.378H124.314C123.982 61.7089 123.682 61.742 123.43 61.7752V61.2648C123.857 61.1613 124.242 60.9301 124.534 60.6021C125.021 60.0136 125.393 59.3392 125.631 58.6138L131.484 43.6621C131.756 43.6621 132.049 43.6621 132.368 43.6621C132.687 43.6621 132.98 43.6356 133.253 43.6157ZM135.048 54.3987V54.9157H127.407L127.659 54.3987H135.048Z" fill="url(#paint42_linear_528_10)"/>
<path d="M158.179 43.6687V44.2122C157.738 44.2412 157.314 44.3877 156.949 44.6363C156.649 44.8947 156.453 45.2525 156.397 45.6437C156.289 46.2852 156.243 46.9353 156.257 47.5856V61.848C156.051 61.848 155.838 61.848 155.625 61.848C155.413 61.848 155.187 61.848 154.96 61.848L143.827 47.791V57.6064C143.811 58.3275 143.863 59.0486 143.98 59.7603C144.009 59.9759 144.083 60.1829 144.198 60.3679C144.312 60.553 144.465 60.7118 144.645 60.834C145.157 61.0986 145.719 61.2521 146.295 61.2847V61.795C145.975 61.795 145.543 61.742 145.018 61.7287H143.528H142.324C141.912 61.7287 141.573 61.7618 141.3 61.795V61.2847C141.739 61.2371 142.16 61.0872 142.53 60.8472C142.832 60.5909 143.026 60.2317 143.076 59.8399C143.188 59.2034 143.237 58.5574 143.222 57.9113V46.3794C143.242 45.9108 143.193 45.4417 143.076 44.9876C143.037 44.8487 142.966 44.7206 142.869 44.6136C142.772 44.5066 142.652 44.4236 142.517 44.3712C142.116 44.2518 141.698 44.1981 141.28 44.2122V43.7018L142.304 43.7549H143.508C143.92 43.7549 144.313 43.7549 144.685 43.7549L145.716 43.7018L155.639 55.8899V47.8573C155.654 47.134 155.603 46.4107 155.486 45.6967C155.454 45.4811 155.379 45.2741 155.265 45.0883C155.151 44.9026 154.999 44.742 154.821 44.6164C154.31 44.3462 153.743 44.1965 153.165 44.179V43.6687L154.448 43.7217H155.931C156.344 43.7217 156.749 43.7217 157.148 43.7217L158.179 43.6687Z" fill="url(#paint43_linear_528_10)"/>
</g>
<defs>
<linearGradient id="paint0_linear_528_10" x1="14.7578" y1="30.2977" x2="73.4166" y2="30.2977" gradientUnits="userSpaceOnUse">
<stop offset="0.326042" stop-color="#2671E7"/>
<stop offset="1" stop-color="#4B91FF"/>
</linearGradient>
<linearGradient id="paint1_linear_528_10" x1="51.3563" y1="70.1921" x2="55.6393" y2="70.1921" gradientUnits="userSpaceOnUse">
<stop offset="0.326042" stop-color="#2671E7"/>
<stop offset="1" stop-color="#4B91FF"/>
</linearGradient>
<linearGradient id="paint2_linear_528_10" x1="56.7036" y1="60.464" x2="71.641" y2="60.464" gradientUnits="userSpaceOnUse">
<stop offset="0.326042" stop-color="#2671E7"/>
<stop offset="1" stop-color="#4B91FF"/>
</linearGradient>
<linearGradient id="paint3_linear_528_10" x1="54.2427" y1="69.8176" x2="59.8559" y2="69.8176" gradientUnits="userSpaceOnUse">
<stop offset="0.326042" stop-color="#2671E7"/>
<stop offset="1" stop-color="#4B91FF"/>
</linearGradient>
<linearGradient id="paint4_linear_528_10" x1="63.4673" y1="62.9725" x2="78.9035" y2="62.9725" gradientUnits="userSpaceOnUse">
<stop offset="0.326042" stop-color="#2671E7"/>
<stop offset="1" stop-color="#4B91FF"/>
</linearGradient>
<linearGradient id="paint5_linear_528_10" x1="71.1887" y1="51.8182" x2="84.3218" y2="51.8182" gradientUnits="userSpaceOnUse">
<stop offset="0.326042" stop-color="#2671E7"/>
<stop offset="1" stop-color="#4B91FF"/>
</linearGradient>
<linearGradient id="paint6_linear_528_10" x1="73.4432" y1="46.7272" x2="79.7297" y2="46.7272" gradientUnits="userSpaceOnUse">
<stop offset="0.326042" stop-color="#2671E7"/>
<stop offset="1" stop-color="#4B91FF"/>
</linearGradient>
<linearGradient id="paint7_linear_528_10" x1="80.8588" y1="41.0972" x2="88.1839" y2="41.0972" gradientUnits="userSpaceOnUse">
<stop offset="0.326042" stop-color="#2671E7"/>
<stop offset="1" stop-color="#4B91FF"/>
</linearGradient>
<linearGradient id="paint8_linear_528_10" x1="78.9035" y1="36.4679" x2="82.3313" y2="36.4679" gradientUnits="userSpaceOnUse">
<stop offset="0.326042" stop-color="#2671E7"/>
<stop offset="1" stop-color="#4B91FF"/>
</linearGradient>
<linearGradient id="paint9_linear_528_10" x1="83.0468" y1="34.556" x2="87.941" y2="34.556" gradientUnits="userSpaceOnUse">
<stop offset="0.326042" stop-color="#2671E7"/>
<stop offset="1" stop-color="#4B91FF"/>
</linearGradient>
<linearGradient id="paint10_linear_528_10" x1="83.8068" y1="27.829" x2="87.4946" y2="27.829" gradientUnits="userSpaceOnUse">
<stop offset="0.326042" stop-color="#2671E7"/>
<stop offset="1" stop-color="#4B91FF"/>
</linearGradient>
<linearGradient id="paint11_linear_528_10" x1="78.112" y1="30.0591" x2="83.6106" y2="30.0591" gradientUnits="userSpaceOnUse">
<stop offset="0.326042" stop-color="#2671E7"/>
<stop offset="1" stop-color="#4B91FF"/>
</linearGradient>
<linearGradient id="paint12_linear_528_10" x1="76.875" y1="23.3542" x2="83.4259" y2="23.3542" gradientUnits="userSpaceOnUse">
<stop offset="0.326042" stop-color="#2671E7"/>
<stop offset="1" stop-color="#4B91FF"/>
</linearGradient>
<linearGradient id="paint13_linear_528_10" x1="83.304" y1="20.1444" x2="86.1086" y2="20.1444" gradientUnits="userSpaceOnUse">
<stop offset="0.326042" stop-color="#2671E7"/>
<stop offset="1" stop-color="#4B91FF"/>
</linearGradient>
<linearGradient id="paint14_linear_528_10" x1="77.0546" y1="11.0745" x2="83.3052" y2="11.0745" gradientUnits="userSpaceOnUse">
<stop offset="0.326042" stop-color="#2671E7"/>
<stop offset="1" stop-color="#4B91FF"/>
</linearGradient>
<linearGradient id="paint15_linear_528_10" x1="74.5339" y1="15.3427" x2="82.3352" y2="15.3427" gradientUnits="userSpaceOnUse">
<stop offset="0.326042" stop-color="#2671E7"/>
<stop offset="1" stop-color="#4B91FF"/>
</linearGradient>
<linearGradient id="paint16_linear_528_10" x1="68.0628" y1="5.53067" x2="78.9832" y2="5.53067" gradientUnits="userSpaceOnUse">
<stop offset="0.326042" stop-color="#2671E7"/>
<stop offset="1" stop-color="#4B91FF"/>
</linearGradient>
<linearGradient id="paint17_linear_528_10" x1="36.1064" y1="70.338" x2="52.1013" y2="70.338" gradientUnits="userSpaceOnUse">
<stop offset="0.326042" stop-color="#2671E7"/>
<stop offset="1" stop-color="#4B91FF"/>
</linearGradient>
<linearGradient id="paint18_linear_528_10" x1="32.5483" y1="70.1921" x2="36.8314" y2="70.1921" gradientUnits="userSpaceOnUse">
<stop offset="0.326042" stop-color="#2671E7"/>
<stop offset="1" stop-color="#4B91FF"/>
</linearGradient>
<linearGradient id="paint19_linear_528_10" x1="16.5469" y1="60.4772" x2="31.471" y2="60.4772" gradientUnits="userSpaceOnUse">
<stop offset="0.326042" stop-color="#2671E7"/>
<stop offset="1" stop-color="#4B91FF"/>
</linearGradient>
<linearGradient id="paint20_linear_528_10" x1="28.3318" y1="69.8176" x2="33.945" y2="69.8176" gradientUnits="userSpaceOnUse">
<stop offset="0.326042" stop-color="#2671E7"/>
<stop offset="1" stop-color="#4B91FF"/>
</linearGradient>
<linearGradient id="paint21_linear_528_10" x1="9.28442" y1="62.9725" x2="24.7073" y2="62.9725" gradientUnits="userSpaceOnUse">
<stop offset="0.326042" stop-color="#2671E7"/>
<stop offset="1" stop-color="#4B91FF"/>
</linearGradient>
<linearGradient id="paint22_linear_528_10" x1="3.86377" y1="51.8182" x2="16.9991" y2="51.8182" gradientUnits="userSpaceOnUse">
<stop offset="0.326042" stop-color="#2671E7"/>
<stop offset="1" stop-color="#4B91FF"/>
</linearGradient>
<linearGradient id="paint23_linear_528_10" x1="8.48419" y1="46.7272" x2="14.7712" y2="46.7272" gradientUnits="userSpaceOnUse">
<stop offset="0.326042" stop-color="#2671E7"/>
<stop offset="1" stop-color="#4B91FF"/>
</linearGradient>
<linearGradient id="paint24_linear_528_10" x1="0.00390629" y1="41.0972" x2="7.32905" y2="41.0972" gradientUnits="userSpaceOnUse">
<stop offset="0.326042" stop-color="#2671E7"/>
<stop offset="1" stop-color="#4B91FF"/>
</linearGradient>
<linearGradient id="paint25_linear_528_10" x1="5.85303" y1="36.4679" x2="9.28431" y2="36.4679" gradientUnits="userSpaceOnUse">
<stop offset="0.326042" stop-color="#2671E7"/>
<stop offset="1" stop-color="#4B91FF"/>
</linearGradient>
<linearGradient id="paint26_linear_528_10" x1="0.246765" y1="34.556" x2="5.14098" y2="34.556" gradientUnits="userSpaceOnUse">
<stop offset="0.326042" stop-color="#2671E7"/>
<stop offset="1" stop-color="#4B91FF"/>
</linearGradient>
<linearGradient id="paint27_linear_528_10" x1="0.687561" y1="27.829" x2="4.38101" y2="27.829" gradientUnits="userSpaceOnUse">
<stop offset="0.326042" stop-color="#2671E7"/>
<stop offset="1" stop-color="#4B91FF"/>
</linearGradient>
<linearGradient id="paint28_linear_528_10" x1="4.57715" y1="30.0591" x2="10.0757" y2="30.0591" gradientUnits="userSpaceOnUse">
<stop offset="0.326042" stop-color="#2671E7"/>
<stop offset="1" stop-color="#4B91FF"/>
</linearGradient>
<linearGradient id="paint29_linear_528_10" x1="4.7619" y1="23.3542" x2="11.3128" y2="23.3542" gradientUnits="userSpaceOnUse">
<stop offset="0.326042" stop-color="#2671E7"/>
<stop offset="1" stop-color="#4B91FF"/>
</linearGradient>
<linearGradient id="paint30_linear_528_10" x1="2.09229" y1="20.1311" x2="4.8839" y2="20.1311" gradientUnits="userSpaceOnUse">
<stop offset="0.326042" stop-color="#2671E7"/>
<stop offset="1" stop-color="#4B91FF"/>
</linearGradient>
<linearGradient id="paint31_linear_528_10" x1="4.90247" y1="11.0745" x2="11.1531" y2="11.0745" gradientUnits="userSpaceOnUse">
<stop offset="0.326042" stop-color="#2671E7"/>
<stop offset="1" stop-color="#4B91FF"/>
</linearGradient>
<linearGradient id="paint32_linear_528_10" x1="5.8526" y1="15.3427" x2="13.6538" y2="15.3427" gradientUnits="userSpaceOnUse">
<stop offset="0.326042" stop-color="#2671E7"/>
<stop offset="1" stop-color="#4B91FF"/>
</linearGradient>
<linearGradient id="paint33_linear_528_10" x1="9.20453" y1="5.53067" x2="20.1249" y2="5.53067" gradientUnits="userSpaceOnUse">
<stop offset="0.326042" stop-color="#2671E7"/>
<stop offset="1" stop-color="#4B91FF"/>
</linearGradient>
<linearGradient id="paint34_linear_528_10" x1="99.8131" y1="22.0663" x2="121.893" y2="22.0663" gradientUnits="userSpaceOnUse">
<stop offset="0.326042" stop-color="#2671E7"/>
<stop offset="1" stop-color="#4B91FF"/>
</linearGradient>
<linearGradient id="paint35_linear_528_10" x1="122.306" y1="22.0332" x2="139.996" y2="22.0332" gradientUnits="userSpaceOnUse">
<stop offset="0.326042" stop-color="#2671E7"/>
<stop offset="1" stop-color="#4B91FF"/>
</linearGradient>
<linearGradient id="paint36_linear_528_10" x1="140.163" y1="22.2401" x2="157.561" y2="22.2401" gradientUnits="userSpaceOnUse">
<stop offset="0.326042" stop-color="#2671E7"/>
<stop offset="1" stop-color="#4B91FF"/>
</linearGradient>
<linearGradient id="paint37_linear_528_10" x1="155.911" y1="22.0233" x2="171.926" y2="22.0233" gradientUnits="userSpaceOnUse">
<stop offset="0.326042" stop-color="#2671E7"/>
<stop offset="1" stop-color="#4B91FF"/>
</linearGradient>
<linearGradient id="paint38_linear_528_10" x1="170.257" y1="22.0398" x2="187.928" y2="22.0398" gradientUnits="userSpaceOnUse">
<stop offset="0.326042" stop-color="#2671E7"/>
<stop offset="1" stop-color="#4B91FF"/>
</linearGradient>
<linearGradient id="paint39_linear_528_10" x1="188.134" y1="22.0729" x2="205.007" y2="22.0729" gradientUnits="userSpaceOnUse">
<stop offset="0.326042" stop-color="#2671E7"/>
<stop offset="1" stop-color="#4B91FF"/>
</linearGradient>
<linearGradient id="paint40_linear_528_10" x1="99.8131" y1="52.7318" x2="107.734" y2="52.7318" gradientUnits="userSpaceOnUse">
<stop offset="0.326042" stop-color="#2671E7"/>
<stop offset="1" stop-color="#4B91FF"/>
</linearGradient>
<linearGradient id="paint41_linear_528_10" x1="108.286" y1="52.7517" x2="125.984" y2="52.7517" gradientUnits="userSpaceOnUse">
<stop offset="0.326042" stop-color="#2671E7"/>
<stop offset="1" stop-color="#4B91FF"/>
</linearGradient>
<linearGradient id="paint42_linear_528_10" x1="123.43" y1="52.6954" x2="141.1" y2="52.6954" gradientUnits="userSpaceOnUse">
<stop offset="0.326042" stop-color="#2671E7"/>
<stop offset="1" stop-color="#4B91FF"/>
</linearGradient>
<linearGradient id="paint43_linear_528_10" x1="141.28" y1="52.7584" x2="158.179" y2="52.7584" gradientUnits="userSpaceOnUse">
<stop offset="0.326042" stop-color="#2671E7"/>
<stop offset="1" stop-color="#4B91FF"/>
</linearGradient>
<clipPath id="clip0_528_10">
<rect width="205" height="73.2143" fill="white"/>
</clipPath>
</defs>
</svg>
