<svg width="25" height="25" viewBox="0 0 25 25" fill="none" xmlns="http://www.w3.org/2000/svg">
<path d="M12.5159 0C5.6327 0 0.0293583 5.59797 0.0268581 12.4805C0.025608 14.6805 0.601894 16.8282 1.6945 18.7207L0 25L6.54116 23.4546C8.36509 24.4496 10.4183 24.9719 12.5085 24.9731H12.5134C19.3953 24.9731 24.9962 19.3739 25 12.4927C25.0025 9.15643 23.705 6.01967 21.3473 3.65967C18.9896 1.30092 15.8562 0.00125 12.5159 0ZM12.5134 2.5C15.1837 2.50125 17.6931 3.54225 19.5795 5.42725C21.466 7.31475 22.5023 9.82273 22.4998 12.4902C22.4973 17.9952 18.019 22.4731 12.511 22.4731C10.8446 22.4719 9.1939 22.0535 7.74001 21.2598L6.89764 20.8008L5.96738 21.0205L3.5062 21.6016L4.10685 19.3701L4.37787 18.3691L3.86024 17.4707C2.98765 15.9607 2.52585 14.2342 2.5271 12.4805C2.5296 6.97797 7.00914 2.5 12.5134 2.5ZM8.09649 6.71875C7.88772 6.71875 7.55017 6.79688 7.26389 7.10938C6.97761 7.42063 6.17003 8.17447 6.17003 9.70947C6.17003 11.2445 7.28831 12.7283 7.44457 12.937C7.59959 13.1445 9.60312 16.394 12.7747 17.644C15.4099 18.6828 15.9452 18.4778 16.5177 18.4253C17.0903 18.374 18.3648 17.6721 18.6249 16.9434C18.8849 16.2146 18.8855 15.5877 18.808 15.459C18.7305 15.329 18.5223 15.2515 18.2098 15.0952C17.8985 14.939 16.3645 14.1858 16.0782 14.082C15.7919 13.9783 15.5826 13.9258 15.375 14.2383C15.1675 14.5508 14.5711 15.2515 14.3886 15.459C14.2061 15.6677 14.0248 15.6958 13.7123 15.5396C13.3997 15.3821 12.3949 15.0518 11.2023 13.9893C10.2747 13.163 9.64877 12.1436 9.46625 11.8311C9.28499 11.5198 9.44916 11.3488 9.60543 11.1938C9.74544 11.0538 9.91552 10.8295 10.0718 10.647C10.2268 10.4645 10.2806 10.3345 10.3843 10.127C10.4881 9.91945 10.435 9.73633 10.3575 9.58008C10.2799 9.42383 9.67297 7.88312 9.39545 7.26562C9.16167 6.74687 8.91477 6.73482 8.69225 6.72607C8.51099 6.71857 8.30401 6.71875 8.09649 6.71875Z" fill="#2671E7"/>
</svg>
