<svg width="92" height="20" viewBox="0 0 92 20" fill="none" xmlns="http://www.w3.org/2000/svg">
<path d="M11.625 9.525H6.975V4.95H5.4V9.525H0.75V11H5.4V15.55H6.975V11H11.625V9.525ZM20.5049 1.05V16.55C20.5049 17.0667 20.5549 17.4667 20.6549 17.75C20.7549 18.0167 20.9382 18.2083 21.2049 18.325C21.4716 18.425 21.8382 18.475 22.3049 18.475V19C21.9382 18.9833 21.4299 18.9667 20.7799 18.95C20.1299 18.9167 19.4549 18.9 18.7549 18.9C17.9382 18.9 17.1299 18.9167 16.3299 18.95C15.5299 18.9667 14.9049 18.9833 14.4549 19V18.475C15.0882 18.475 15.5799 18.4083 15.9299 18.275C16.2799 18.1417 16.5299 17.9083 16.6799 17.575C16.8299 17.225 16.9049 16.7333 16.9049 16.1V5.05C16.9049 4.18333 16.7132 3.64167 16.3299 3.425C15.9465 3.20833 15.2215 3.1 14.1549 3.1V2.575C15.7882 2.375 17.0965 2.14167 18.0799 1.875C19.0632 1.59167 19.8715 1.31667 20.5049 1.05ZM34.1461 0.0499996C34.1294 0.266665 34.1128 0.541665 34.0961 0.874999C34.0794 1.19167 34.0711 1.49167 34.0711 1.775C34.0711 2.15833 34.0794 2.54167 34.0961 2.925C34.1294 3.30833 34.1794 3.725 34.2461 4.175H25.9211L25.5461 9.375C26.1128 8.925 26.7378 8.60833 27.4211 8.425C28.1044 8.225 28.8378 8.125 29.6211 8.125C30.7544 8.125 31.7544 8.33333 32.6211 8.75C33.4878 9.16667 34.1711 9.775 34.6711 10.575C35.1878 11.375 35.4461 12.3333 35.4461 13.45C35.4461 14.6833 35.1461 15.7417 34.5461 16.625C33.9461 17.4917 33.1378 18.1667 32.1211 18.65C31.1211 19.1167 29.9878 19.35 28.7211 19.35C28.1544 19.35 27.5628 19.2833 26.9461 19.15C26.3461 19.0167 25.8128 18.7917 25.3461 18.475C24.9128 18.1917 24.5794 17.8667 24.3461 17.5C24.1128 17.1167 23.9961 16.7167 23.9961 16.3C23.9961 15.7667 24.1711 15.3167 24.5211 14.95C24.8711 14.5833 25.3461 14.4 25.9461 14.4C26.4628 14.4 26.8878 14.55 27.2211 14.85C27.5711 15.15 27.7461 15.5917 27.7461 16.175C27.7461 16.6917 27.5961 17.125 27.2961 17.475C27.0128 17.825 26.6294 18.0833 26.1461 18.25C26.3294 18.4333 26.6044 18.5833 26.9711 18.7C27.3544 18.8167 27.7711 18.875 28.2211 18.875C28.8544 18.875 29.4294 18.7333 29.9461 18.45C30.4628 18.1667 30.8794 17.65 31.1961 16.9C31.5128 16.1333 31.6711 15.0417 31.6711 13.625C31.6711 12.0917 31.3794 10.9 30.7961 10.05C30.2294 9.2 29.4628 8.775 28.4961 8.775C28.1461 8.775 27.6961 8.85 27.1461 9C26.5961 9.13333 26.0378 9.45 25.4711 9.95L25.0211 9.85L25.7211 1.2C26.0544 1.26667 26.4294 1.3 26.8461 1.3H31.7961C32.3794 1.3 32.8128 1.20833 33.0961 1.025C33.3794 0.841666 33.5628 0.516666 33.6461 0.0499996H34.1461ZM60.0635 6.075V6.6C59.6635 6.6 59.3551 6.65833 59.1385 6.775C58.9218 6.875 58.7718 7.06667 58.6885 7.35C58.6051 7.61667 58.5635 8.00833 58.5635 8.525V16.55C58.5635 17.0667 58.6051 17.4667 58.6885 17.75C58.7718 18.0167 58.9218 18.2083 59.1385 18.325C59.3551 18.425 59.6635 18.475 60.0635 18.475V19C59.7135 18.9833 59.2468 18.9667 58.6635 18.95C58.0801 18.9167 57.4718 18.9 56.8385 18.9C56.1551 18.9 55.4885 18.9167 54.8385 18.95C54.1885 18.9667 53.6801 18.9833 53.3135 19V18.475C53.7468 18.475 54.0801 18.425 54.3135 18.325C54.5635 18.2083 54.7301 18.0167 54.8135 17.75C54.9135 17.4667 54.9635 17.0667 54.9635 16.55V7.525L50.1885 19.125H49.7885L45.0135 7.675V15.45C45.0135 16.1 45.0718 16.65 45.1885 17.1C45.3051 17.5333 45.5301 17.8667 45.8635 18.1C46.1968 18.3333 46.6885 18.4667 47.3385 18.5V19C46.6551 18.95 45.7968 18.925 44.7635 18.925C44.4135 18.925 44.0468 18.9333 43.6635 18.95C43.2968 18.95 42.9885 18.9667 42.7385 19V18.5C43.2218 18.4667 43.5885 18.325 43.8385 18.075C44.0885 17.8083 44.2551 17.4417 44.3385 16.975C44.4218 16.5083 44.4635 15.95 44.4635 15.3V8.725C44.4635 8.10833 44.4218 7.65833 44.3385 7.375C44.2551 7.075 44.0885 6.875 43.8385 6.775C43.5885 6.65833 43.2218 6.59167 42.7385 6.575V6.075C42.9885 6.09167 43.2968 6.10833 43.6635 6.125C44.0468 6.14167 44.4135 6.15 44.7635 6.15C46.0468 6.15 47.1635 6.125 48.1135 6.075L51.6635 15L50.7635 16.4L54.9635 6.15C55.2635 6.15 55.5968 6.15833 55.9635 6.175C56.3301 6.175 56.6718 6.175 56.9885 6.175C57.5885 6.175 58.1635 6.16667 58.7135 6.15C59.2801 6.11667 59.7301 6.09167 60.0635 6.075ZM75.2676 6.1V6.625C74.7342 6.625 74.3592 6.75 74.1426 7C73.9259 7.25 73.8176 7.725 73.8176 8.425V16.675C73.8176 17.375 73.9259 17.85 74.1426 18.1C74.3759 18.35 74.7509 18.475 75.2676 18.475V19C74.9676 18.9833 74.5259 18.9667 73.9426 18.95C73.3592 18.9167 72.7342 18.9 72.0676 18.9C71.4009 18.9 70.7176 18.9167 70.0176 18.95C69.3176 18.9667 68.7842 18.9833 68.4176 19V18.475C69.0342 18.475 69.4842 18.35 69.7676 18.1C70.0676 17.85 70.2176 17.375 70.2176 16.675V8.425C70.2176 7.725 70.1176 7.25 69.9176 7C69.7176 6.75 69.3676 6.625 68.8676 6.625H68.6426C68.1926 6.625 67.9092 6.75833 67.7926 7.025C67.6926 7.275 67.6092 7.74167 67.5426 8.425C67.4092 9.975 67.2426 11.4667 67.0426 12.9C66.8592 14.3333 66.5509 15.6167 66.1176 16.75C65.8009 17.5167 65.4092 18.1417 64.9426 18.625C64.4759 19.1083 63.9009 19.35 63.2176 19.35C62.8509 19.35 62.4842 19.275 62.1176 19.125C61.7509 18.975 61.4426 18.7333 61.1926 18.4C60.9426 18.05 60.8176 17.6083 60.8176 17.075C60.8176 16.4417 61.0009 15.95 61.3676 15.6C61.7509 15.2333 62.2259 15.05 62.7926 15.05C63.3759 15.05 63.8259 15.225 64.1426 15.575C64.4592 15.925 64.6176 16.35 64.6176 16.85C64.6176 17.3667 64.4676 17.7833 64.1676 18.1C63.8676 18.4167 63.4842 18.675 63.0176 18.875C63.0509 18.8917 63.1009 18.9083 63.1676 18.925C63.2342 18.925 63.2926 18.925 63.3426 18.925C63.7426 18.925 64.0842 18.8083 64.3676 18.575C64.6509 18.3417 64.9009 18.05 65.1176 17.7C65.3342 17.3333 65.5176 16.975 65.6676 16.625C65.9509 15.9083 66.1759 15.1 66.3426 14.2C66.5259 13.2833 66.6759 12.325 66.7926 11.325C66.9092 10.325 67.0009 9.35833 67.0676 8.425C67.1176 7.725 66.9676 7.25 66.6176 7C66.2842 6.75 65.7759 6.625 65.0926 6.625V6.1C65.2259 6.11667 65.4342 6.13333 65.7176 6.15C66.0176 6.15 66.3342 6.15 66.6676 6.15C67.0342 6.15 67.3842 6.15 67.7176 6.15C68.0509 6.13333 68.4759 6.125 68.9926 6.125C69.6759 6.125 70.2342 6.14167 70.6676 6.175C71.1176 6.19167 71.6259 6.2 72.1926 6.2C72.7259 6.2 73.2926 6.19167 73.8926 6.175C74.5092 6.14167 74.9676 6.11667 75.2676 6.1ZM91.3025 6.1V6.625C90.7192 6.625 90.3025 6.75 90.0525 7C89.8192 7.25 89.7025 7.725 89.7025 8.425V16.675C89.7025 17.375 89.8192 17.85 90.0525 18.1C90.3025 18.35 90.7192 18.475 91.3025 18.475V19C90.9859 18.9833 90.5025 18.9667 89.8525 18.95C89.2192 18.9167 88.6025 18.9 88.0025 18.9C87.3692 18.9 86.7442 18.9167 86.1275 18.95C85.5275 18.9667 85.0692 18.9833 84.7525 19V18.475C85.2525 18.475 85.6025 18.35 85.8025 18.1C86.0025 17.85 86.1025 17.375 86.1025 16.675V8.425C86.1025 7.725 86.0025 7.25 85.8025 7C85.6025 6.75 85.2525 6.625 84.7525 6.625V6.1C85.0525 6.11667 85.4942 6.14167 86.0775 6.175C86.6609 6.19167 87.2525 6.2 87.8525 6.2C88.5025 6.2 89.1525 6.19167 89.8025 6.175C90.4692 6.14167 90.9692 6.11667 91.3025 6.1ZM83.1275 6.1V6.625C82.6442 6.625 82.2942 6.75 82.0775 7C81.8775 7.25 81.7775 7.725 81.7775 8.425V16.675C81.7775 17.375 81.8775 17.85 82.0775 18.1C82.2942 18.35 82.6442 18.475 83.1275 18.475V19C82.8275 18.9833 82.3859 18.9667 81.8025 18.95C81.2359 18.9167 80.6442 18.9 80.0275 18.9C79.3942 18.9 78.7442 18.9167 78.0775 18.95C77.4109 18.9667 76.9109 18.9833 76.5775 19V18.475C77.1609 18.475 77.5692 18.35 77.8025 18.1C78.0525 17.85 78.1775 17.375 78.1775 16.675V8.425C78.1775 7.725 78.0525 7.25 77.8025 7C77.5692 6.75 77.1609 6.625 76.5775 6.625V6.1C76.8942 6.11667 77.3692 6.14167 78.0025 6.175C78.6525 6.19167 79.2775 6.2 79.8775 6.2C80.5275 6.2 81.1525 6.19167 81.7525 6.175C82.3692 6.14167 82.8275 6.11667 83.1275 6.1ZM87.4025 12.1V12.6H80.3525V12.1H87.4025Z" fill="#2671E7"/>
</svg>
