<svg width="71" height="20" viewBox="0 0 71 20" fill="none" xmlns="http://www.w3.org/2000/svg">
<path d="M11.5049 9.525H6.85488V4.95H5.27988V9.525H0.629883V11H5.27988V15.55H6.85488V11H11.5049V9.525ZM20.3848 1.05V16.55C20.3848 17.0667 20.4348 17.4667 20.5348 17.75C20.6348 18.0167 20.8181 18.2083 21.0848 18.325C21.3514 18.425 21.7181 18.475 22.1848 18.475V19C21.8181 18.9833 21.3098 18.9667 20.6598 18.95C20.0098 18.9167 19.3348 18.9 18.6348 18.9C17.8181 18.9 17.0098 18.9167 16.2098 18.95C15.4098 18.9667 14.7848 18.9833 14.3348 19V18.475C14.9681 18.475 15.4598 18.4083 15.8098 18.275C16.1598 18.1417 16.4098 17.9083 16.5598 17.575C16.7098 17.225 16.7848 16.7333 16.7848 16.1V5.05C16.7848 4.18333 16.5931 3.64167 16.2098 3.425C15.8264 3.20833 15.1014 3.1 14.0348 3.1V2.575C15.6681 2.375 16.9764 2.14167 17.9598 1.875C18.9431 1.59167 19.7514 1.31667 20.3848 1.05ZM31.176 0.949998C32.5593 0.949998 33.7676 1.30833 34.801 2.025C35.851 2.74167 36.6593 3.775 37.226 5.125C37.8093 6.45833 38.101 8.08333 38.101 10C38.101 11.8667 37.801 13.5 37.201 14.9C36.6176 16.3 35.801 17.3917 34.751 18.175C33.701 18.9583 32.501 19.35 31.151 19.35C29.7676 19.35 28.551 18.9917 27.501 18.275C26.4676 17.5583 25.6593 16.525 25.076 15.175C24.5093 13.825 24.226 12.2 24.226 10.3C24.226 8.43333 24.5176 6.8 25.101 5.4C25.701 4 26.526 2.90833 27.576 2.125C28.626 1.34167 29.826 0.949998 31.176 0.949998ZM31.076 1.4C30.0593 1.4 29.301 2.15833 28.801 3.675C28.3176 5.19167 28.076 7.36667 28.076 10.2C28.076 13.1167 28.3593 15.3 28.926 16.75C29.4926 18.1833 30.2676 18.9 31.251 18.9C32.2676 18.9 33.0176 18.1417 33.501 16.625C34.001 15.1083 34.251 12.9333 34.251 10.1C34.251 7.18333 33.9676 5.00833 33.401 3.575C32.8343 2.125 32.0593 1.4 31.076 1.4ZM47.509 0.949998C48.8923 0.949998 50.1007 1.30833 51.134 2.025C52.184 2.74167 52.9923 3.775 53.559 5.125C54.1423 6.45833 54.434 8.08333 54.434 10C54.434 11.8667 54.134 13.5 53.534 14.9C52.9507 16.3 52.134 17.3917 51.084 18.175C50.034 18.9583 48.834 19.35 47.484 19.35C46.1007 19.35 44.884 18.9917 43.834 18.275C42.8007 17.5583 41.9923 16.525 41.409 15.175C40.8423 13.825 40.559 12.2 40.559 10.3C40.559 8.43333 40.8507 6.8 41.434 5.4C42.034 4 42.859 2.90833 43.909 2.125C44.959 1.34167 46.159 0.949998 47.509 0.949998ZM47.409 1.4C46.3923 1.4 45.634 2.15833 45.134 3.675C44.6507 5.19167 44.409 7.36667 44.409 10.2C44.409 13.1167 44.6923 15.3 45.259 16.75C45.8257 18.1833 46.6007 18.9 47.584 18.9C48.6007 18.9 49.3507 18.1417 49.834 16.625C50.334 15.1083 50.584 12.9333 50.584 10.1C50.584 7.18333 50.3007 5.00833 49.734 3.575C49.1673 2.125 48.3923 1.4 47.409 1.4ZM63.842 0.949998C65.2253 0.949998 66.4337 1.30833 67.467 2.025C68.517 2.74167 69.3253 3.775 69.892 5.125C70.4753 6.45833 70.767 8.08333 70.767 10C70.767 11.8667 70.467 13.5 69.867 14.9C69.2837 16.3 68.467 17.3917 67.417 18.175C66.367 18.9583 65.167 19.35 63.817 19.35C62.4337 19.35 61.217 18.9917 60.167 18.275C59.1337 17.5583 58.3253 16.525 57.742 15.175C57.1753 13.825 56.892 12.2 56.892 10.3C56.892 8.43333 57.1837 6.8 57.767 5.4C58.367 4 59.192 2.90833 60.242 2.125C61.292 1.34167 62.492 0.949998 63.842 0.949998ZM63.742 1.4C62.7253 1.4 61.967 2.15833 61.467 3.675C60.9837 5.19167 60.742 7.36667 60.742 10.2C60.742 13.1167 61.0253 15.3 61.592 16.75C62.1587 18.1833 62.9337 18.9 63.917 18.9C64.9337 18.9 65.6837 18.1417 66.167 16.625C66.667 15.1083 66.917 12.9333 66.917 10.1C66.917 7.18333 66.6337 5.00833 66.067 3.575C65.5003 2.125 64.7253 1.4 63.742 1.4Z" fill="#2671E7"/>
</svg>
