<svg width="20" height="20" viewBox="0 0 20 20" fill="none" xmlns="http://www.w3.org/2000/svg">
<g clip-path="url(#clip0_543_1017)">
<path d="M9.8047 4.86511C7.02516 4.86511 4.7749 7.16345 4.7749 9.99678C4.7749 12.8326 7.02761 15.1284 9.8047 15.1284C12.5842 15.1284 14.8345 12.8301 14.8345 9.99678C14.8345 7.16095 12.5818 4.86511 9.8047 4.86511ZM9.8047 13.3276C8.00041 13.3276 6.53999 11.8368 6.53999 9.99678C6.53999 8.15678 8.00123 6.66595 9.8047 6.66595C11.6082 6.66595 13.0694 8.15678 13.0694 9.99678C13.0702 11.8368 11.609 13.3276 9.8047 13.3276Z" fill="white"/>
<path d="M13.8427 0.0639209C12.0392 -0.0219125 7.57217 -0.0177458 5.76706 0.0639209C4.18085 0.139754 2.78169 0.530587 1.6537 1.68142C-0.231455 3.60475 0.00949884 6.19642 0.00949884 9.99726C0.00949884 13.8873 -0.202867 16.4189 1.6537 18.3131C3.5462 20.2431 6.12318 19.9906 9.80446 19.9906C13.5813 19.9906 14.8849 19.9931 16.2203 19.4656C18.0361 18.7464 19.4067 17.0906 19.5406 14.1164C19.6255 12.2756 19.6206 7.71892 19.5406 5.87726C19.3789 2.36642 17.5321 0.237254 13.8427 0.0639209ZM16.6974 17.0406C15.4615 18.3014 13.7471 18.1889 9.78077 18.1889C5.69681 18.1889 4.05915 18.2506 2.86418 17.0281C1.48789 15.6306 1.73701 13.3864 1.73701 9.98392C1.73701 5.37976 1.27389 2.06392 5.803 1.82725C6.84359 1.78975 7.14989 1.77725 9.76933 1.77725L9.80609 1.80225C14.1588 1.80225 17.5738 1.33725 17.7788 5.95726C17.8253 7.01142 17.836 7.32809 17.836 9.99642C17.8351 14.1148 17.9119 15.7956 16.6974 17.0406Z" fill="white"/>
<path d="M15.0338 5.86171C15.6829 5.86171 16.2091 5.32483 16.2091 4.66255C16.2091 4.00026 15.6829 3.46338 15.0338 3.46338C14.3846 3.46338 13.8584 4.00026 13.8584 4.66255C13.8584 5.32483 14.3846 5.86171 15.0338 5.86171Z" fill="white"/>
</g>
<defs>
<clipPath id="clip0_543_1017">
<rect width="20" height="20" fill="white"/>
</clipPath>
</defs>
</svg>
