<svg width="140" height="50" viewBox="0 0 140 50" fill="none" xmlns="http://www.w3.org/2000/svg">
<g clip-path="url(#clip0_489_1341)">
<path d="M49.9111 24.5677H49.5704L45.9369 17.0679C45.9674 17.0426 45.9909 17.0098 46.005 16.9728C46.0581 16.8471 46.0799 16.7105 46.0686 16.5745C46.0686 16.5745 46.0686 16.4116 45.9778 16.4116C45.9467 16.4131 45.9166 16.4233 45.891 16.4409C45.8653 16.4584 45.845 16.4828 45.8325 16.5112C45.8027 16.5769 45.7549 16.633 45.6947 16.673C45.6345 16.713 45.5642 16.7354 45.4918 16.7375C45.4251 16.7389 45.36 16.7171 45.3078 16.6758C45.2555 16.6344 45.2194 16.5762 45.2057 16.5112V13.5828C45.2045 13.4743 45.1604 13.3707 45.083 13.2945C45.0056 13.2182 44.9012 13.1754 44.7923 13.1754H44.3382V12.4558C44.9451 12.1933 45.4548 11.7487 45.7961 11.1839C45.5123 11.448 45.1774 11.6516 44.8119 11.7823C44.4464 11.9131 44.0581 11.9682 43.6705 11.9443C39.4147 11.9443 37.5843 9.36897 35.1589 9.36897C32.997 9.36897 31.7752 10.0977 30.9577 11.0934V9.85779C31.2417 9.70685 31.4792 9.48183 31.6448 9.20679C31.8104 8.93175 31.8978 8.61703 31.8978 8.29628C31.8978 7.31411 30.835 6.76192 30.122 4.05078C29.4043 6.76645 28.337 7.31411 28.337 8.29628C28.3352 8.61575 28.4204 8.92972 28.5836 9.20472C28.7467 9.47971 28.9818 9.70543 29.2635 9.85779V11.0934C28.4415 10.0886 27.2197 9.34633 25.0396 9.34633C22.6142 9.34633 20.7838 11.9217 16.528 11.9217C16.145 11.9461 15.761 11.8933 15.3989 11.7666C15.0368 11.6398 14.7041 11.4417 14.4206 11.1839C14.7377 11.7268 15.2129 12.1609 15.7831 12.4286V13.1981H15.3789C15.2701 13.1981 15.1656 13.2408 15.0882 13.3171C15.0109 13.3934 14.9668 13.497 14.9656 13.6054V16.5338C14.9517 16.5996 14.9149 16.6585 14.8617 16.6999C14.8085 16.7413 14.7424 16.7626 14.6749 16.7601C14.6031 16.7582 14.5333 16.7359 14.4737 16.6958C14.4142 16.6558 14.3674 16.5995 14.3388 16.5338C14.3259 16.5047 14.3049 16.4799 14.2784 16.4623C14.2518 16.4447 14.2208 16.4349 14.1889 16.4342C14.0845 16.4342 14.1026 16.5972 14.1026 16.5972C14.0837 16.7645 14.1292 16.9327 14.2298 17.0679L10.5963 24.5677H10.3056C10.2454 24.5677 10.1876 24.5915 10.145 24.6339C10.1024 24.6764 10.0785 24.7339 10.0785 24.794C10.0785 24.854 10.1024 24.9115 10.145 24.954C10.1876 24.9964 10.2454 25.0203 10.3056 25.0203H10.5236L11.0141 25.8078C11.1028 25.9473 11.2256 26.0621 11.371 26.1413C11.5164 26.2205 11.6796 26.2615 11.8453 26.2604H20.0662C20.2378 26.261 20.4066 26.216 20.555 26.1301C20.7035 26.0442 20.8263 25.9205 20.9109 25.7716L21.3651 25.0067H21.6331C21.6934 25.0067 21.7511 24.9829 21.7937 24.9404C21.8363 24.898 21.8602 24.8404 21.8602 24.7804C21.8602 24.7204 21.8363 24.6628 21.7937 24.6204C21.7511 24.5779 21.6934 24.5541 21.6331 24.5541H21.2925L17.6589 17.0543C17.6867 17.0265 17.7097 16.9944 17.7271 16.9593C17.7824 16.8342 17.8043 16.697 17.7907 16.561C17.7907 16.561 17.7907 16.398 17.7044 16.398C17.6725 16.3987 17.6414 16.4085 17.6149 16.4261C17.5884 16.4437 17.5674 16.4685 17.5545 16.4976C17.5259 16.5633 17.4791 16.6195 17.4196 16.6596C17.36 16.6997 17.2902 16.722 17.2184 16.7239C17.1509 16.7264 17.0847 16.7051 17.0316 16.6637C16.9784 16.6222 16.9416 16.5634 16.9277 16.4976V13.5828C16.9265 13.4751 16.8831 13.3722 16.8067 13.296C16.7303 13.2199 16.627 13.1766 16.5189 13.1754H16.0647V12.5418C16.6761 12.7885 17.331 12.9101 17.9905 12.8993C20.7156 12.8993 22.8367 11.7135 24.8624 11.7135C26.8881 11.7135 28.0418 12.8314 28.446 14.4654C28.4843 14.7193 28.5772 14.9619 28.7183 15.1767C28.8594 15.3915 29.0454 15.5735 29.2635 15.7101V17.8645C28.4233 19.5799 27.9555 20.2181 27.9555 21.1097C27.9682 21.5108 28.099 21.8992 28.3316 22.2268C28.5641 22.5543 28.8882 22.8065 29.2635 22.9518H28.6095V22.9971C28.6095 23.1416 28.6668 23.2802 28.7689 23.3828C28.8709 23.4853 29.0096 23.5436 29.1545 23.5448H29.2635V23.581C28.9042 24.1169 28.7124 24.7469 28.7124 25.3914C28.7124 26.0359 28.9042 26.666 29.2635 27.2019V30.1484H29.2999C29.0001 30.1484 29.0001 30.4109 29.0001 30.4109C29.0001 30.4109 28.7049 32.9862 28.496 34.3305C28.287 35.6747 26.6338 35.7698 26.6338 35.7698H24.876C24.696 35.7693 24.5224 35.8366 24.3902 35.9584C24.2579 36.0801 24.1767 36.2472 24.163 36.4261H23.2864C23.0425 36.4248 22.8079 36.5189 22.633 36.6882C22.458 36.8575 22.3567 37.0884 22.3507 37.3313H38.034C38.028 37.0892 37.9273 36.8589 37.7534 36.6898C37.5794 36.5207 37.3459 36.426 37.1029 36.4261H36.2263C36.2114 36.2468 36.1293 36.0797 35.9963 35.958C35.8633 35.8364 35.6892 35.7692 35.5087 35.7698H33.7555C33.7555 35.7698 32.1022 35.6747 31.8933 34.3305C31.6844 32.9862 31.3892 30.4109 31.3892 30.4109C31.3892 30.4109 31.3891 30.171 31.0894 30.1484H30.9395V27.2471C31.3039 26.7073 31.4985 26.0714 31.4985 25.4208C31.4985 24.7702 31.3039 24.1344 30.9395 23.5945V23.5629H31.0303C31.1757 23.5617 31.3148 23.5036 31.4176 23.4012C31.5204 23.2987 31.5787 23.1601 31.5799 23.0152V22.9518H30.9668C31.3415 22.8009 31.6631 22.5429 31.891 22.2103C32.1189 21.8777 32.243 21.4853 32.2476 21.0826C32.2476 20.1773 31.7934 19.5527 30.9395 17.8419V15.7101C31.1561 15.575 31.3417 15.396 31.4841 15.1846C31.6265 14.9733 31.7226 14.7344 31.7661 14.4835C32.1704 12.8495 33.324 11.7316 35.3497 11.7316C37.3754 11.7316 39.501 12.9174 42.2216 12.9174C42.8416 12.9244 43.4576 12.817 44.0384 12.6006V13.1754H43.6342C43.5257 13.1754 43.4218 13.2183 43.3451 13.2947C43.2685 13.3711 43.2254 13.4747 43.2254 13.5828V16.5112C43.2107 16.5766 43.1737 16.6349 43.1207 16.6762C43.0677 16.7174 43.0019 16.7391 42.9347 16.7375C42.8629 16.7356 42.793 16.7133 42.7335 16.6732C42.674 16.6331 42.6271 16.5769 42.5986 16.5112C42.5857 16.4821 42.5647 16.4573 42.5382 16.4397C42.5116 16.4221 42.4806 16.4123 42.4487 16.4116C42.3443 16.4116 42.3624 16.5745 42.3624 16.5745C42.3494 16.6614 42.3544 16.75 42.377 16.8348C42.3997 16.9197 42.4395 16.999 42.4941 17.0679L38.8606 24.5677H38.5699C38.5097 24.5677 38.4519 24.5915 38.4093 24.6339C38.3668 24.6764 38.3428 24.7339 38.3428 24.794C38.3428 24.854 38.3668 24.9115 38.4093 24.954C38.4519 24.9964 38.5097 25.0203 38.5699 25.0203H38.8016L39.2966 25.8078C39.3853 25.9473 39.5081 26.0621 39.6535 26.1413C39.7989 26.2205 39.9621 26.2615 40.1278 26.2604H48.3396C48.5119 26.2613 48.6814 26.2165 48.8307 26.1306C48.9799 26.0447 49.1035 25.9208 49.1889 25.7716L49.6431 25.0067H49.9111C49.9713 25.0067 50.0291 24.9829 50.0717 24.9404C50.1143 24.898 50.1382 24.8404 50.1382 24.7804C50.1382 24.7204 50.1143 24.6628 50.0717 24.6204C50.0291 24.5779 49.9713 24.5541 49.9111 24.5541V24.5677ZM15.7786 24.5677H10.9006L14.4751 17.2037C14.5429 17.2119 14.6116 17.2119 14.6795 17.2037C15.3153 17.2037 15.2472 16.4885 15.2472 16.4885H15.7786V24.5677ZM16.6234 16.5112C16.6234 16.5112 16.5553 17.2263 17.1911 17.2263C17.259 17.234 17.3276 17.234 17.3955 17.2263L20.97 24.5903H16.0511V16.5112H16.6234ZM16.2101 13.9856C16.2094 14.0395 16.1943 14.0922 16.1663 14.1384C16.1384 14.1845 16.0986 14.2224 16.0511 14.2481C16.0097 14.272 15.9627 14.2845 15.9148 14.2845C15.867 14.2845 15.82 14.272 15.7786 14.2481C15.7299 14.2236 15.689 14.186 15.6604 14.1397C15.6318 14.0933 15.6166 14.04 15.6166 13.9856C15.6166 13.9312 15.6318 13.8779 15.6604 13.8315C15.689 13.7852 15.7299 13.7476 15.7786 13.7231C15.821 13.7023 15.8676 13.6915 15.9148 13.6915C15.9621 13.6915 16.0087 13.7023 16.0511 13.7231C16.0986 13.7488 16.1384 13.7867 16.1663 13.8329C16.1943 13.879 16.2094 13.9317 16.2101 13.9856ZM44.0656 24.5677H39.1922L42.7621 17.2037C42.83 17.2113 42.8986 17.2113 42.9665 17.2037C43.6069 17.2037 43.5388 16.4885 43.5388 16.4885H44.0656V24.5677ZM44.0656 14.2481C44.0182 14.2225 43.9786 14.1845 43.9511 14.1383C43.9235 14.0921 43.9089 14.0394 43.9089 13.9856C43.9089 13.9318 43.9235 13.8791 43.9511 13.8329C43.9786 13.7867 44.0182 13.7487 44.0656 13.7231C44.1077 13.7015 44.1546 13.6906 44.2019 13.6914C44.2508 13.69 44.2992 13.7009 44.3427 13.7231C44.3901 13.7487 44.4297 13.7867 44.4573 13.8329C44.4849 13.8791 44.4994 13.9318 44.4994 13.9856C44.4994 14.0394 44.4849 14.0921 44.4573 14.1383C44.4297 14.1845 44.3901 14.2225 44.3427 14.2481C44.2995 14.2717 44.2511 14.2841 44.2019 14.2843C44.1542 14.2836 44.1074 14.2711 44.0656 14.2481ZM44.3427 24.5677V16.5112H44.9104C44.9104 16.5112 44.8468 17.2263 45.4827 17.2263C45.5506 17.234 45.6192 17.234 45.6871 17.2263L49.248 24.5677H44.3427Z" fill="white"/>
<path d="M37.9976 50.0001C37.6661 50.0001 37.3345 50.0001 37.012 49.973C35.1544 48.6151 35.0726 46.1937 35.0726 46.0941C35.4451 46.0262 35.813 45.9538 36.1809 45.8723C36.1763 45.8723 36.308 48.8369 37.9976 50.0001Z" fill="white"/>
<path d="M45.0604 39.6985C42.3625 44.2698 39.919 45.1932 39.6782 45.2701C39.6374 45.1524 39.6056 45.0212 39.5738 44.8899C39.2922 44.9895 39.0106 45.0891 38.7244 45.1796C38.7859 45.48 38.8756 45.774 38.9924 46.0577C39.0287 46.1527 39.0696 46.2568 39.1196 46.3609C39.476 47.2341 40.1 47.9728 40.9025 48.4718C41.705 48.9708 42.6451 49.2047 43.5888 49.1399C44.7014 48.7897 45.7781 48.3351 46.8045 47.7821L46.8499 47.755C46.5819 47.8093 41.7403 48.7779 40.037 46.0667C41.5994 45.9721 43.1064 45.4559 44.3969 44.5733C45.6874 43.6908 46.7128 42.475 47.3632 41.0563C47.7612 40.1372 47.9919 39.1548 48.0444 38.1551C48.1612 36.5537 48.4568 34.9704 48.9256 33.4343C47.7583 34.7197 46.0187 37.888 45.0604 39.6985ZM40.4731 45.3968C40.4731 45.3968 43.3663 43.9123 44.3246 42.0023V42.8668C44.3246 42.8668 46.3776 40.5267 47.027 38.499C47.027 38.5172 47.2678 44.3151 40.4731 45.4059V45.3968Z" fill="white"/>
<path d="M40.8772 49.7827C40.4957 49.837 40.1142 49.8868 39.7326 49.9185C38.9466 49.5112 38.2833 48.9031 37.8108 48.1562C37.3383 47.4094 37.0736 46.5508 37.0438 45.6684C37.3254 45.6006 37.6025 45.5236 37.8795 45.4421C37.8932 45.4421 38.3474 48.4113 40.8772 49.7827Z" fill="white"/>
<path d="M53.8853 38.6304C53.8853 38.6304 53.4538 43.3421 49.7567 45.759C46.0596 48.1759 43.5661 47.1757 43.5661 47.1757C43.5661 47.1757 45.569 46.1845 46.7454 45.5191C47.0148 45.3665 47.3214 45.2913 47.6311 45.3019C48.2042 45.3724 48.7839 45.3724 49.357 45.3019C48.8997 45.2334 48.4518 45.1135 48.0217 44.9443C48.0217 44.9443 51.6552 43.6996 52.3819 40.8346C51.3368 42.3606 49.8346 43.5185 48.0898 44.1432C46.4045 44.751 44.8083 45.5806 43.3435 46.6099C44.2667 45.6239 45.3396 44.7885 46.5228 44.1341C49.6477 42.7808 51.6461 41.6674 53.8853 38.6304Z" fill="white"/>
<path d="M48.6166 39.4949C48.6166 39.4949 52.7044 39.6352 55.7202 37.0282C56.5614 36.3614 57.1615 35.4395 57.4295 34.4022C57.6976 33.3649 57.6189 32.2688 57.2054 31.28C56.8954 32.4334 56.1797 33.4374 55.1888 34.1089C53.4765 35.34 52.3819 35.9193 50.9784 37.1459C50.3971 37.5985 49.8157 38.1461 48.6166 38.988C48.6166 38.988 55.1025 36.8924 57.001 32.9683C57.001 32.9683 56.2425 36.7204 48.6166 39.4949Z" fill="white"/>
<path d="M50.1564 35.8333C50.1564 30.5694 53.581 30.7641 54.1033 27.7271C54.1033 27.7271 56.1017 32.6153 50.497 36.0958C51.6643 32.6967 52.5545 32.5428 53.958 29.5149C52.2865 32.4116 52.0549 31.8232 50.1564 35.8333Z" fill="white"/>
<path d="M55.2206 31.4022C55.9882 26.5095 59.1903 27.1884 60.1259 24.4456C60.1259 24.4456 61.2977 29.2794 55.5068 31.6873C57.101 28.6956 57.9594 28.682 59.7262 26.075C57.746 28.5326 57.6142 27.9578 55.2206 31.4022Z" fill="white"/>
<path d="M55.4432 28.2745C52.8906 25.1515 55.0435 23.59 53.8853 21.5352C53.8853 21.5352 57.4598 23.4588 55.7748 28.261C54.8255 25.6766 55.2888 25.147 54.6665 22.6667C55.0753 25.2149 54.6529 24.9569 55.4432 28.2745Z" fill="white"/>
<path d="M56.7149 26.5999C56.7149 22.5717 59.381 22.7211 59.7898 20.3992C59.7898 20.3992 61.3386 24.1423 56.9829 26.7991C57.8913 24.2011 58.5816 24.0834 59.6717 21.7661C58.3863 23.9839 58.2092 23.5358 56.7149 26.5999Z" fill="white"/>
<path d="M57.3916 22.2005C56.5832 18.3578 59.1494 17.9686 59.0721 15.6738C59.0721 15.6738 61.3022 18.9326 57.6868 22.3363C58.0275 19.6794 58.6634 19.426 59.2356 17C58.459 19.3717 58.1955 18.9779 57.3916 22.2005Z" fill="white"/>
<path d="M56.7876 23.4271C53.4901 21.2817 55.0298 19.1997 53.3448 17.6292C53.3448 17.6292 57.2327 18.3624 57.0964 23.3185C55.4477 21.1957 55.7338 20.5711 54.4031 18.4529C55.534 20.6888 55.0707 20.5847 56.7876 23.4271Z" fill="white"/>
<path d="M56.6967 18.5209C53.1904 17.1314 54.3576 14.5787 52.5 13.3792C52.5 13.3792 56.3606 13.1484 56.9738 18.3308C55.0662 16.5475 55.2342 15.8279 53.6446 13.9631C55.0707 15.9863 54.612 16.0044 56.6967 18.5209Z" fill="white"/>
<path d="M57.5734 17.326C55.8429 13.3204 58.0276 12.551 57.369 10.0842C58.2031 11.1072 58.6996 12.362 58.7906 13.6769C58.8817 14.9918 58.5628 16.3027 57.8777 17.4301C57.4871 14.5334 57.9912 14.1804 57.8777 11.5009C57.7868 14.1442 57.4507 13.764 57.5734 17.326Z" fill="white"/>
<path d="M56.515 11.9717C52.6998 7.19208 54.5575 6.00171 52.6226 3.03711C52.6226 3.03711 57.1645 6.658 56.8784 12.0893C54.998 8.54087 55.3341 8.04752 53.8444 4.73893C55.098 8.01584 54.5575 7.56323 56.515 11.9717Z" fill="white"/>
<path d="M55.8565 14.6465C51.4871 10.3648 53.1858 8.96174 50.9012 6.25513C50.9012 6.25513 55.8565 9.3193 56.2289 14.7009C53.9262 11.4058 54.2032 10.8763 52.3183 7.7759C53.9807 10.8853 53.3902 10.5142 55.8565 14.6465Z" fill="white"/>
<path d="M53.5764 7.49072C48.2487 3.60731 49.4069 2.43958 46.4819 0C46.4819 0 51.9913 2.8424 53.9398 7.55409C50.824 4.59853 51.4235 4.75242 48.7529 1.98244C51.2192 4.75242 50.061 3.80194 53.5764 7.49072Z" fill="white"/>
<path d="M35.5814 49.8462C33.6936 49.6009 31.8552 49.0665 30.1311 48.2621C28.3995 49.0677 26.5534 49.6021 24.6581 49.8462C24.7308 49.7648 26.057 48.1173 26.1387 46.2253L26.8973 46.3249H26.9336L27.2924 46.3611L27.6966 46.3973H27.7511C28.0373 46.3973 28.3279 46.4426 28.6186 46.4562H29.1228C29.2924 46.4562 29.4604 46.4562 29.6269 46.4562H30.6262C30.7942 46.4562 30.9668 46.4562 31.1349 46.4562H31.6345C31.9297 46.4562 32.2158 46.42 32.5065 46.3973H32.561L32.9607 46.3611L33.3241 46.3249H33.3513L34.1053 46.2253C34.187 48.1173 35.5133 49.7648 35.5814 49.8462Z" fill="white"/>
<path d="M22.2281 50.0001C22.5597 50.0001 22.8913 50.0001 23.2137 49.973C25.0714 48.6151 25.1486 46.1937 25.1531 46.0941C24.7807 46.0262 24.4083 45.9538 24.0449 45.8723C24.0495 45.8723 23.9177 48.8369 22.2281 50.0001Z" fill="white"/>
<path d="M11.3003 33.439C11.7691 34.975 12.0646 36.5584 12.1814 38.1597C12.234 39.1594 12.4647 40.1418 12.8627 41.0609C13.5111 42.4801 14.5345 43.6968 15.8233 44.5809C17.1122 45.4651 18.618 45.9834 20.1797 46.0804C18.4765 48.7961 13.6348 47.823 13.3669 47.7687L13.4123 47.7958C14.4387 48.3488 15.5154 48.8034 16.628 49.1536C17.5717 49.2184 18.5118 48.9845 19.3143 48.4855C20.1168 47.9865 20.7408 47.2478 21.0972 46.3746C21.1472 46.2705 21.188 46.1664 21.2244 46.0714C21.3412 45.7877 21.4309 45.4937 21.4924 45.1933C21.2062 45.1028 20.9246 45.0032 20.643 44.9036C20.6112 45.0349 20.5749 45.1661 20.5385 45.2838C20.2978 45.2069 17.8543 44.2835 15.1564 39.7122C14.2071 37.8881 12.4585 34.7199 11.3003 33.439ZM13.1988 38.5173C13.8483 40.545 15.9012 42.885 15.9012 42.885V42.0114C16.8596 43.9215 19.7528 45.406 19.7528 45.406C12.9581 44.3152 13.1988 38.5173 13.1988 38.5173Z" fill="white"/>
<path d="M19.3486 49.7827C19.7256 49.837 20.1116 49.8868 20.4931 49.9185C21.2792 49.5112 21.9425 48.9031 22.4149 48.1562C22.8874 47.4094 23.1521 46.5508 23.1819 45.6684C22.9003 45.6006 22.6233 45.5236 22.3462 45.4421C22.3462 45.4421 21.8693 48.4113 19.3486 49.7827Z" fill="white"/>
<path d="M6.34058 38.6304C6.34058 38.6304 6.79477 43.3421 10.4692 45.759C14.1436 48.1759 16.6598 47.1757 16.6598 47.1757C16.6598 47.1757 14.6568 46.1845 13.4805 45.5191C13.2111 45.3665 12.9045 45.2913 12.5948 45.3019C12.0217 45.3725 11.442 45.3725 10.8689 45.3019C11.3261 45.2334 11.7741 45.1135 12.2042 44.9443C12.2042 44.9443 8.57065 43.6996 7.8394 40.8346C8.88822 42.359 10.3912 43.5164 12.1361 44.1432C13.8186 44.7587 15.4116 45.5943 16.8733 46.628C15.9501 45.642 14.8772 44.8066 13.6939 44.1522C10.5782 42.7808 8.57974 41.6674 6.34058 38.6304Z" fill="white"/>
<path d="M11.6091 39.4949C11.6091 39.4949 7.52142 39.6352 4.50559 37.0282C3.66481 36.3611 3.06471 35.4394 2.79596 34.4024C2.5272 33.3654 2.60439 32.2694 3.01584 31.28C3.32999 32.4327 4.04671 33.4359 5.03699 34.1089C6.74929 35.34 7.84389 35.9193 9.24734 37.1459C9.8287 37.5985 10.4101 38.1461 11.6091 38.988C11.6091 38.988 5.12328 36.8924 3.22476 32.9683C3.22476 32.9683 3.98326 36.7204 11.6091 39.4949Z" fill="white"/>
<path d="M10.0876 35.8333C10.0876 30.5694 6.66301 30.7641 6.14069 27.7271C6.14069 27.7271 4.14225 32.6153 9.74243 36.0958C8.5797 32.6967 7.68949 32.5428 6.28604 29.5149C7.93929 32.4116 8.17093 31.8232 10.0876 35.8333Z" fill="white"/>
<path d="M5.00522 31.4022C4.23764 26.5095 1.03559 27.1884 0.0999516 24.4456C0.0999516 24.4456 -1.07186 29.2794 4.71909 31.6873C3.12487 28.6956 2.26191 28.682 0.499642 26.075C2.46629 28.5326 2.61163 27.9578 5.00522 31.4022Z" fill="white"/>
<path d="M4.78263 28.2745C7.33519 25.1515 5.18232 23.59 6.34051 21.5352C6.34051 21.5352 2.76602 23.4588 4.44653 28.261C5.39579 25.6766 4.93705 25.147 5.5593 22.6667C5.15052 25.2149 5.57293 24.9569 4.78263 28.2745Z" fill="white"/>
<path d="M3.51091 26.5999C3.51091 22.5717 0.844802 22.7211 0.43603 20.3992C0.43603 20.3992 -1.11276 24.1423 3.24294 26.7991C2.33455 24.2011 1.64418 24.0834 0.549578 21.7661C1.83948 23.9839 2.01208 23.5358 3.51091 26.5999Z" fill="white"/>
<path d="M2.83416 22.2005C3.64262 18.3578 1.07644 17.9686 1.15365 15.6738C1.15365 15.6738 -1.07643 18.9326 2.51623 22.3363C2.17558 19.6794 1.53971 19.426 0.967433 17C1.76681 19.3717 2.01207 18.9779 2.83416 22.2005Z" fill="white"/>
<path d="M3.43366 23.4271C6.73563 21.2817 5.19592 19.1997 6.88097 17.6292C6.88097 17.6292 2.9931 18.3624 3.12935 23.3185C4.77807 21.1957 4.49193 20.5711 5.82271 18.4529C4.69177 20.6888 5.15505 20.5847 3.43366 23.4271Z" fill="white"/>
<path d="M3.52907 18.5209C7.03543 17.1314 5.86361 14.5787 7.7258 13.3792C7.7258 13.3792 3.86517 13.1484 3.25201 18.3308C5.15962 16.5475 4.99157 15.8279 6.58124 13.9631C5.15508 15.9863 5.61381 16.0044 3.52907 18.5209Z" fill="white"/>
<path d="M2.65251 17.326C4.38298 13.3204 2.19832 12.551 2.85689 10.0842C2.0275 11.106 1.53414 12.3577 1.44393 13.6688C1.35372 14.98 1.67105 16.287 2.35274 17.412C2.74335 14.5153 2.23919 14.1623 2.35274 11.4828C2.43904 14.1442 2.77514 13.764 2.65251 17.326Z" fill="white"/>
<path d="M3.72435 11.9717C7.53956 7.19208 5.68191 6.00171 7.61677 3.03711C7.61677 3.03711 3.07486 6.658 3.361 12.0893C5.24135 8.54087 4.90524 8.04752 6.39499 4.73893C5.1278 8.01584 5.64558 7.56323 3.72435 11.9717Z" fill="white"/>
<path d="M4.36933 14.6465C8.73865 10.3648 7.03997 8.96174 9.32456 6.25513C9.32456 6.25513 4.36932 9.3193 3.99689 14.7009C6.2951 11.4058 6.02259 10.8763 7.90748 7.7759C6.24514 10.8853 6.83559 10.5142 4.36933 14.6465Z" fill="white"/>
<path d="M6.64936 7.49072C11.977 3.60731 10.8188 2.43958 13.7438 0C13.7438 0 8.23449 2.8424 6.28601 7.55409C9.40176 4.59853 8.80222 4.75242 11.4729 1.98244C9.00661 4.75242 10.1875 3.80194 6.64936 7.49072Z" fill="white"/>
<path d="M83.226 8.88013V9.22864C82.9457 9.22966 82.6676 9.27865 82.4039 9.37347C82.3123 9.40785 82.2303 9.46358 82.1647 9.53603C82.0991 9.60847 82.0519 9.69552 82.027 9.78988C81.9513 10.1008 81.9192 10.4207 81.9316 10.7404V19.3852C81.9199 19.7019 81.952 20.0187 82.027 20.3267C82.0501 20.4223 82.0967 20.5108 82.1625 20.5843C82.2282 20.6577 82.3112 20.7138 82.4039 20.7476C82.6762 20.8326 82.959 20.8798 83.2442 20.8879V21.2364C82.9172 21.2364 82.5039 21.1957 82.0088 21.1912H80.4918H78.9158C78.4252 21.1912 78.0301 21.1912 77.7258 21.2364V20.8879C78.0333 20.8791 78.3384 20.8319 78.6342 20.7476C78.7316 20.7161 78.8199 20.6612 78.8911 20.5879C78.9624 20.5145 79.0145 20.4248 79.0429 20.3267C79.1264 20.0201 79.1616 19.7025 79.1474 19.3852V9.94376H79.27L74.928 21.2591H74.6464L69.8955 10.0117V18.3714C69.8848 18.8654 69.9198 19.3593 70 19.8469C70.0196 19.9941 70.0702 20.1355 70.1485 20.2619C70.2268 20.3882 70.3309 20.4967 70.4542 20.5801C70.8045 20.7587 71.1879 20.8635 71.5806 20.8879V21.2364C71.358 21.2364 71.0673 21.1957 70.704 21.1912H69.6911H68.869C68.6337 21.194 68.3988 21.2092 68.165 21.2364V20.8879C68.4652 20.8571 68.7534 20.7547 69.0053 20.5892C69.2135 20.4155 69.3482 20.1697 69.3823 19.9012C69.4567 19.4662 69.4901 19.0253 69.4822 18.5841V10.7313C69.4935 10.4114 69.4599 10.0915 69.3823 9.78082C69.3566 9.68615 69.3085 9.59896 69.2422 9.52653C69.1758 9.4541 69.093 9.39852 69.0007 9.36442C68.7316 9.27406 68.449 9.22969 68.165 9.23316V8.88465L68.869 8.91634C69.1461 8.91634 69.4232 8.91634 69.6911 8.91634C70.1907 8.91634 70.6858 8.91634 71.1718 8.91634L72.4572 8.88465L76.1361 17.7332L75.6819 18.1315L79.2246 8.92086H80.4691C80.9823 8.92086 81.491 8.92086 81.9861 8.92086L83.226 8.88013Z" fill="white"/>
<path d="M90.2479 8.84399L94.5036 19.7836C94.6091 20.1141 94.7984 20.4119 95.0532 20.6481C95.2109 20.7819 95.4027 20.8697 95.6073 20.9016V21.2501C95.2576 21.2501 94.8443 21.2093 94.3719 21.2048H92.9458H91.4197C90.9428 21.2048 90.5613 21.2048 90.2842 21.2501V20.9016C90.6848 20.9402 91.0858 20.8307 91.4106 20.5938C91.5695 20.4127 91.5332 20.028 91.297 19.4351L88.3085 11.3062L88.6219 10.8536L85.9603 17.765C85.6903 18.385 85.5275 19.0461 85.4788 19.7202C85.4596 19.8957 85.4893 20.073 85.5646 20.2327C85.6399 20.3924 85.758 20.5283 85.9058 20.6255C86.2537 20.8009 86.6377 20.8939 87.0276 20.897V21.2456C86.6416 21.2456 86.2737 21.2048 85.9239 21.2003H84.8566H84.1299C83.9279 21.2045 83.7262 21.2196 83.5258 21.2456V20.897C83.8168 20.8245 84.0794 20.6669 84.2798 20.4444C84.6117 20.0412 84.8672 19.5811 85.0337 19.0866L89.0261 8.87568C89.2123 8.87568 89.4121 8.87568 89.6302 8.87568C89.8482 8.87568 90.0616 8.85757 90.2479 8.84399ZM91.4878 16.208V16.5565H86.2555L86.4281 16.208H91.4878Z" fill="white"/>
<path d="M95.7299 8.88013L96.9108 8.91181C97.4059 8.91181 97.901 8.91181 98.3915 8.91181C98.9502 8.91181 99.4952 8.91181 100.022 8.91181H101.139C102.765 8.91181 103.977 9.17583 104.773 9.70388C105.155 9.93744 105.468 10.2679 105.681 10.6615C105.893 11.0551 105.997 11.4977 105.981 11.9443C105.978 12.3562 105.895 12.7636 105.736 13.1437C105.55 13.5746 105.265 13.9559 104.905 14.2572C104.433 14.6391 103.885 14.9154 103.297 15.0673C102.463 15.2895 101.602 15.3916 100.74 15.3706H99.0728V15.0221H100.572C101.123 15.0595 101.671 14.9216 102.139 14.6283C102.491 14.3683 102.749 14.0014 102.874 13.5828C103.014 13.1097 103.081 12.6184 103.074 12.1254C103.117 11.3813 102.947 10.6404 102.584 9.98903C102.396 9.72599 102.141 9.51713 101.846 9.3836C101.551 9.25007 101.226 9.19662 100.903 9.22864C100.743 9.20515 100.579 9.21954 100.425 9.27064C100.271 9.32173 100.132 9.40812 100.018 9.52284C99.85 9.90091 99.7813 10.3151 99.8177 10.7268V19.3852C99.806 19.7019 99.8381 20.0187 99.913 20.3267C99.9373 20.4219 99.9842 20.5098 100.05 20.5831C100.115 20.6564 100.198 20.7128 100.29 20.7476C100.562 20.8322 100.845 20.8794 101.13 20.8879V21.2364C100.817 21.2364 100.422 21.1957 99.9403 21.1912H98.4869H96.9018C96.4067 21.1912 95.9934 21.1912 95.7209 21.2364V20.8879C96.006 20.8794 96.2887 20.8322 96.5611 20.7476C96.6533 20.7128 96.7356 20.6564 96.8013 20.5831C96.8669 20.5098 96.9138 20.4219 96.9381 20.3267C97.013 20.0187 97.0451 19.7019 97.0335 19.3852V10.7313C97.0458 10.4116 97.0137 10.0917 96.9381 9.78082C96.9116 9.68583 96.8628 9.5985 96.7956 9.52608C96.7285 9.45366 96.645 9.39824 96.552 9.36442C96.2844 9.27406 96.0034 9.22967 95.7209 9.23316L95.7299 8.88013ZM99.041 15.0764C99.5406 15.0764 99.9766 15.1081 100.345 15.1443L101.317 15.2393C101.598 15.271 101.848 15.2891 102.07 15.3027C102.901 15.3214 103.711 15.5554 104.423 15.9816C104.953 16.3741 105.308 16.957 105.413 17.6065L105.818 19.4169C105.877 19.7579 105.989 20.0877 106.149 20.3946C106.201 20.4827 106.275 20.5553 106.365 20.6047C106.454 20.6541 106.555 20.6784 106.658 20.6752C106.791 20.6686 106.921 20.6281 107.035 20.5575C107.154 20.4762 107.262 20.3804 107.357 20.2724L107.603 20.4806C107.327 20.8118 106.981 21.0777 106.59 21.2591C106.171 21.4246 105.723 21.5046 105.273 21.4944C104.725 21.5151 104.183 21.375 103.715 21.0916C103.485 20.9128 103.295 20.6886 103.157 20.4331C103.019 20.1776 102.935 19.8963 102.911 19.607L102.593 17.8645C102.523 17.43 102.424 17.0006 102.298 16.579C102.204 16.2574 102.039 15.9606 101.816 15.71C101.705 15.6006 101.572 15.5156 101.425 15.4602C101.279 15.4049 101.123 15.3805 100.967 15.3887H99.0728L99.041 15.0764Z" fill="white"/>
<path d="M117.413 8.8621V9.21061C117.105 9.35193 116.835 9.56267 116.623 9.82616C116.268 10.2582 115.963 10.7289 115.714 11.2293L112.408 17.7559H111.581L107.494 10.2018C107.359 9.90677 107.167 9.64078 106.93 9.41881C106.803 9.30829 106.644 9.24161 106.476 9.22871V8.8621C106.794 8.89831 107.117 8.92094 107.448 8.92999C107.78 8.93904 108.148 8.92999 108.543 8.92999C109.06 8.92999 109.615 8.92999 110.21 8.90283C110.805 8.87568 111.345 8.86662 111.836 8.84399V9.21061C111.572 9.20812 111.309 9.23085 111.05 9.2785C110.861 9.30102 110.687 9.39108 110.559 9.53196C110.465 9.65266 110.488 9.84728 110.627 10.1158L113.398 15.425L112.858 16.1627L114.674 12.5418C115.03 11.9344 115.264 11.2644 115.365 10.5684C115.398 10.3824 115.383 10.191 115.322 10.0121C115.261 9.8332 115.155 9.67269 115.015 9.54554C114.689 9.3233 114.301 9.21069 113.907 9.22419V8.87568L115.024 8.91188C115.374 8.91188 115.733 8.91188 116.096 8.91188C116.35 8.91188 116.591 8.91188 116.823 8.91188L117.413 8.8621ZM113.661 15.004V19.3853C113.643 19.7014 113.67 20.0186 113.743 20.3267C113.766 20.4224 113.813 20.5109 113.879 20.5843C113.944 20.6578 114.027 20.7139 114.12 20.7477C114.392 20.8327 114.675 20.8799 114.96 20.888V21.2365C114.642 21.2365 114.238 21.1958 113.743 21.1912H112.263H110.705C110.214 21.1912 109.828 21.1912 109.546 21.2365V20.888C109.832 20.8795 110.114 20.8323 110.387 20.7477C110.479 20.7129 110.561 20.6564 110.627 20.5832C110.693 20.5099 110.739 20.4219 110.764 20.3267C110.839 20.0188 110.871 19.702 110.859 19.3853V15.8097L112.385 16.8914L113.661 15.004Z" fill="white"/>
<path d="M122.981 8.84399L127.237 19.7836C127.343 20.1141 127.532 20.4119 127.787 20.6481C127.944 20.7819 128.136 20.8697 128.341 20.9016V21.2501C127.991 21.2501 127.578 21.2093 127.106 21.2048H125.675H124.153C123.699 21.2048 123.295 21.2048 123.013 21.2501V20.9016C123.415 20.9392 123.817 20.8298 124.144 20.5938C124.303 20.4127 124.262 20.028 124.031 19.4351L121.051 11.3198L121.369 10.8672L118.708 17.7785C118.435 18.3979 118.273 19.0593 118.226 19.7338C118.207 19.9092 118.236 20.0866 118.312 20.2463C118.387 20.406 118.505 20.5419 118.653 20.639C119.001 20.8145 119.385 20.9075 119.775 20.9106V21.2591C119.389 21.2591 119.021 21.2184 118.671 21.2139H117.604H116.877C116.675 21.2179 116.473 21.233 116.273 21.2591V20.9106C116.564 20.8381 116.827 20.6805 117.027 20.458C117.357 20.0543 117.611 19.5942 117.776 19.1002L121.773 8.88925C121.96 8.88925 122.159 8.88925 122.377 8.88925C122.595 8.88925 122.791 8.85757 122.981 8.84399ZM124.19 16.208V16.5565H118.966L119.144 16.208H124.19Z" fill="white"/>
<path d="M140.005 8.88013V9.22864C139.704 9.24801 139.414 9.3464 139.164 9.51378C138.959 9.69216 138.826 9.9379 138.787 10.2063C138.714 10.6444 138.682 11.0884 138.692 11.5324V21.2681C138.551 21.2681 138.406 21.2681 138.26 21.2681H137.806L130.203 11.6727V18.3714C130.191 18.8656 130.228 19.3598 130.312 19.8469C130.331 19.9944 130.381 20.1363 130.459 20.2628C130.537 20.3893 130.642 20.4975 130.766 20.5801C131.117 20.7587 131.5 20.8635 131.893 20.8879V21.2364C131.675 21.2364 131.379 21.1957 131.021 21.1912H130.003H129.181C128.947 21.194 128.714 21.2091 128.482 21.2364V20.8879C128.781 20.8554 129.069 20.7531 129.322 20.5892C129.527 20.4127 129.661 20.1684 129.699 19.9012C129.771 19.4661 129.803 19.0251 129.794 18.5841V10.7313C129.807 10.4116 129.775 10.0917 129.699 9.78082C129.671 9.68631 129.622 9.59947 129.555 9.5272C129.488 9.45492 129.405 9.39919 129.313 9.36442C129.045 9.2744 128.764 9.23002 128.482 9.23316V8.88465L129.186 8.92086C129.463 8.92086 129.74 8.92086 130.008 8.92086C130.276 8.92086 130.557 8.92086 130.812 8.92086L131.516 8.88918L138.27 17.2037V11.7406C138.28 11.2466 138.245 10.7527 138.165 10.2651C138.143 10.1173 138.092 9.97533 138.014 9.84777C137.936 9.72022 137.833 9.60969 137.711 9.52284C137.361 9.34219 136.974 9.24168 136.58 9.22864V8.88013L137.457 8.91181C137.815 8.91181 138.156 8.91181 138.469 8.91181C138.783 8.91181 139.028 8.91181 139.301 8.91181L140.005 8.88013Z" fill="white"/>
<path d="M73.5745 29.8225V30.1937C73.2861 30.1915 72.9993 30.2358 72.7251 30.3249C72.6332 30.36 72.551 30.4166 72.4854 30.4898C72.4198 30.563 72.3727 30.6508 72.3481 30.7458C72.2785 31.0577 72.2495 31.3771 72.2619 31.6963V40.3503C72.2502 40.6669 72.2823 40.9837 72.3572 41.2917C72.3808 41.3872 72.4274 41.4755 72.4932 41.5489C72.5589 41.6223 72.6416 41.6785 72.7342 41.7126C73.0066 41.7972 73.2893 41.8444 73.5745 41.8529V42.2014C73.2611 42.2014 72.8614 42.1652 72.3845 42.1562H70.9311H69.3459C68.86 42.1562 68.4648 42.1788 68.165 42.2014V41.8529C68.4502 41.8439 68.7328 41.7967 69.0053 41.7126C69.0975 41.6778 69.1798 41.6214 69.2455 41.5481C69.3111 41.4748 69.358 41.3869 69.3823 41.2917C69.4572 40.9837 69.4893 40.6669 69.4777 40.3503V31.6737C69.4903 31.354 69.4582 31.0341 69.3823 30.7232C69.3541 30.6285 69.3048 30.5414 69.2379 30.4684C69.171 30.3955 69.0884 30.3387 68.9962 30.3023C68.728 30.2145 68.4474 30.1702 68.165 30.171V29.8225L69.3459 29.8587C69.8274 29.8587 70.3588 29.8587 70.9311 29.8587C71.4216 29.8587 71.903 29.8587 72.3845 29.8587L73.5745 29.8225Z" fill="white"/>
<path d="M86.0375 29.8225V30.1937C85.7208 30.3308 85.4408 30.5401 85.22 30.8047C84.8662 31.2403 84.5967 31.7375 84.4251 32.2711L80.728 42.2286C80.6297 42.2214 80.5311 42.2214 80.4328 42.2286H79.8196C79.7198 42.2216 79.6197 42.2216 79.5199 42.2286L75.0552 31.3025C74.9504 30.9728 74.7628 30.6752 74.5101 30.4381C74.3539 30.2993 74.1591 30.2109 73.9515 30.1846V29.8361L75.1869 29.8723C75.6411 29.8723 76.1361 29.8723 76.613 29.8723C77.0899 29.8723 77.6531 29.8723 78.13 29.8723L79.2746 29.8361V30.1937C78.8789 30.1656 78.4849 30.2673 78.1527 30.4833C77.9802 30.6508 78.0165 31.0446 78.2618 31.6601L81.4411 39.7392L81.0732 40.1918L83.4895 33.6969C83.7588 33.0398 83.9243 32.3451 83.98 31.6375C84.0048 31.4412 83.9845 31.2419 83.9208 31.0545C83.8571 30.8671 83.7515 30.6966 83.6121 30.5557C83.2977 30.3154 82.9089 30.1921 82.513 30.2072V29.8587L83.6303 29.8949C83.98 29.8949 84.3388 29.8949 84.6976 29.8949C84.9565 29.8949 85.1973 29.8949 85.4289 29.8949L86.0375 29.8225Z" fill="white"/>
<path d="M91.0018 29.7864L95.2576 40.7124C95.3619 41.0435 95.5514 41.3415 95.8072 41.5769C95.9638 41.7124 96.1561 41.8004 96.3613 41.8304V42.1789C96.0115 42.1789 95.5982 42.1427 95.1259 42.1336H93.6997H92.1736C91.6967 42.1336 91.3152 42.1563 91.0336 42.1789V41.8304C91.4356 41.8689 91.8379 41.7594 92.1645 41.5226C92.3235 41.3461 92.2826 40.9568 92.051 40.3639L89.076 32.2486L89.3894 31.796L86.7279 38.7074C86.457 39.3271 86.2941 39.9883 86.2464 40.6626C86.2272 40.8381 86.2568 41.0154 86.3322 41.1751C86.4075 41.3348 86.5255 41.4707 86.6734 41.5679C87.0213 41.7433 87.4053 41.8363 87.7952 41.8394V42.1879C87.4091 42.1879 87.0413 42.1517 86.6915 42.1427H85.6242H84.8975C84.6704 42.1427 84.466 42.1653 84.2934 42.1879V41.8394C84.5852 41.7687 84.8483 41.6108 85.0474 41.3868C85.3802 40.9849 85.6344 40.5243 85.7968 40.029L89.7936 29.8181C89.9799 29.8181 90.1797 29.8181 90.3977 29.8181C90.6157 29.8181 90.8156 29.8 91.0018 29.7864ZM92.2281 37.1504V37.5034H87.0095L87.182 37.1504H92.2281Z" fill="white"/>
<path d="M108.025 29.8225V30.1937C107.724 30.2135 107.434 30.3135 107.185 30.4833C106.98 30.6598 106.846 30.9041 106.808 31.1713C106.734 31.6094 106.702 32.0534 106.712 32.4974V42.2376C106.572 42.2376 106.426 42.2376 106.281 42.2376C106.135 42.2376 105.981 42.2376 105.827 42.2376L98.2235 32.6378V39.3409C98.2128 39.8334 98.2477 40.3258 98.3279 40.8119C98.3476 40.9591 98.3982 41.1005 98.4765 41.2269C98.5547 41.3532 98.6589 41.4617 98.7821 41.5451C99.1316 41.7258 99.5155 41.8307 99.9085 41.8529V42.2014C99.6905 42.2014 99.3953 42.1652 99.0365 42.1562H98.0191H97.197C96.9154 42.1562 96.6838 42.1788 96.4975 42.2014V41.8529C96.7973 41.8204 97.0851 41.7181 97.3378 41.5542C97.5437 41.3792 97.6765 41.1338 97.7102 40.8662C97.7869 40.4315 97.8204 39.9904 97.8102 39.5491V31.6737C97.8242 31.3537 97.7905 31.0334 97.7102 30.7232C97.6838 30.6283 97.6356 30.5409 97.5694 30.4678C97.5031 30.3948 97.4207 30.3381 97.3287 30.3023C97.0549 30.2207 96.7696 30.184 96.4839 30.1937V29.8451L97.1834 29.8813H98.0055C98.2871 29.8813 98.555 29.8813 98.8094 29.8813L99.5134 29.8451L106.29 38.1687V32.683C106.3 32.189 106.265 31.6951 106.185 31.2075C106.164 31.0602 106.113 30.9189 106.035 30.792C105.956 30.6652 105.853 30.5555 105.731 30.4697C105.382 30.2852 104.995 30.183 104.6 30.171V29.8225L105.477 29.8587H106.49C106.771 29.8587 107.048 29.8587 107.321 29.8587L108.025 29.8225Z" fill="white"/>
</g>
<defs>
<clipPath id="clip0_489_1341">
<rect width="140" height="50" fill="white"/>
</clipPath>
</defs>
</svg>
