<svg width="21" height="20" viewBox="0 0 21 20" fill="none" xmlns="http://www.w3.org/2000/svg">
<path d="M10.5513 0C5.04473 0 0.562061 4.47837 0.560061 9.98438C0.559061 11.7444 1.02009 13.4626 1.89418 14.9766L0.538574 20L5.77151 18.7637C7.23065 19.5597 8.87325 19.9775 10.5454 19.9785H10.5493C16.0549 19.9785 20.5356 15.4991 20.5386 9.99414C20.5406 7.32514 19.5026 4.81573 17.6164 2.92773C15.7302 1.04073 13.2235 0.001 10.5513 0ZM10.5493 2C12.6855 2.001 14.6931 2.8338 16.2022 4.3418C17.7114 5.8518 18.5404 7.85819 18.5384 9.99219C18.5364 14.3962 14.9538 17.9785 10.5474 17.9785C9.21423 17.9775 7.8937 17.6428 6.73058 17.0078L6.05669 16.6406L5.31248 16.8164L3.34354 17.2812L3.82405 15.4961L4.04087 14.6953L3.62677 13.9766C2.9287 12.7686 2.55926 11.3874 2.56026 9.98438C2.56226 5.58238 6.14589 2 10.5493 2ZM7.01577 5.375C6.84875 5.375 6.57871 5.4375 6.34969 5.6875C6.12067 5.9365 5.4746 6.53958 5.4746 7.76758C5.4746 8.99558 6.36922 10.1826 6.49423 10.3496C6.61825 10.5156 8.22107 13.1152 10.7583 14.1152C12.8665 14.9462 13.2947 14.7822 13.7528 14.7402C14.2108 14.6992 15.2304 14.1377 15.4385 13.5547C15.6465 12.9717 15.647 12.4702 15.585 12.3672C15.523 12.2632 15.3564 12.2012 15.1064 12.0762C14.8574 11.9512 13.6302 11.3486 13.4012 11.2656C13.1721 11.1826 13.0046 11.1406 12.8386 11.3906C12.6726 11.6406 12.1955 12.2012 12.0495 12.3672C11.9034 12.5342 11.7584 12.5566 11.5084 12.4316C11.2584 12.3056 10.4545 12.0414 9.50039 11.1914C8.75831 10.5304 8.25759 9.71484 8.11158 9.46484C7.96656 9.21584 8.09791 9.07908 8.22292 8.95508C8.33493 8.84308 8.47099 8.66358 8.596 8.51758C8.72001 8.37158 8.76302 8.26756 8.84602 8.10156C8.92903 7.93556 8.88654 7.78906 8.82454 7.66406C8.76253 7.53906 8.27695 6.3065 8.05493 5.8125C7.86791 5.3975 7.67039 5.38786 7.49238 5.38086C7.34736 5.37486 7.18178 5.375 7.01577 5.375Z" fill="white"/>
</svg>
