<svg width="26" height="25" viewBox="0 0 26 25" fill="none" xmlns="http://www.w3.org/2000/svg">
<g clip-path="url(#clip0_528_56)">
<path d="M12.8688 6.0813C9.22062 6.0813 6.26715 8.95422 6.26715 12.4959C6.26715 16.0407 9.22383 18.9105 12.8688 18.9105C16.5169 18.9105 19.4704 16.0375 19.4704 12.4959C19.4704 8.95109 16.5137 6.0813 12.8688 6.0813ZM12.8688 16.6594C10.5006 16.6594 8.58383 14.7959 8.58383 12.4959C8.58383 10.1959 10.5017 8.33234 12.8688 8.33234C15.2358 8.33234 17.1537 10.1959 17.1537 12.4959C17.1548 14.7959 15.2369 16.6594 12.8688 16.6594Z" fill="#2671E7"/>
<path d="M18.1686 0.0799926C15.8015 -0.0272991 9.93856 -0.0220907 7.56936 0.0799926C5.48746 0.174784 3.65106 0.663326 2.17057 2.10187C-0.303692 4.50603 0.0125588 7.74562 0.0125588 12.4967C0.0125588 17.3592 -0.266171 20.5237 2.17057 22.8914C4.65448 25.3039 8.03676 24.9883 12.8684 24.9883C17.8255 24.9883 19.5365 24.9914 21.2893 24.3321C23.6724 23.4331 25.4713 21.3633 25.6471 17.6456C25.7586 15.3446 25.7522 9.64874 25.6471 7.34666C25.4349 2.95812 23.011 0.296659 18.1686 0.0799926ZM21.9154 21.3008C20.2934 22.8769 18.0432 22.7362 12.8373 22.7362C7.47716 22.7362 5.32772 22.8133 3.75933 21.2852C1.95295 19.5383 2.27992 16.7331 2.27992 12.48C2.27992 6.72478 1.67207 2.57999 7.61652 2.28416C8.9823 2.23728 9.38432 2.22166 12.8223 2.22166L12.8706 2.25291C18.5835 2.25291 23.0657 1.67166 23.3347 7.44666C23.3959 8.76437 23.4098 9.1602 23.4098 12.4956C23.4087 17.6435 23.5095 19.7446 21.9154 21.3008Z" fill="#2671E7"/>
<path d="M19.732 7.32702C20.584 7.32702 21.2746 6.65591 21.2746 5.82806C21.2746 5.00021 20.584 4.3291 19.732 4.3291C18.88 4.3291 18.1893 5.00021 18.1893 5.82806C18.1893 6.65591 18.88 7.32702 19.732 7.32702Z" fill="#2671E7"/>
</g>
<defs>
<clipPath id="clip0_528_56">
<rect width="26" height="25" fill="white"/>
</clipPath>
</defs>
</svg>
